<svg xmlns="http://www.w3.org/2000/svg" width="590.673" height="177.165"><g><g fill="#323232"><path d="M336.277 117.803c0 9.13-6.61 16.266-19.813 21.413-10 3.883-20.533 5.824-31.603 5.824-23.208 0-34.81-5.726-34.81-17.185 0-8.16 7.573-16.07 22.72-23.74 13.496-6.797 24.86-10.197 34.083-10.197 8.156 0 14.904 1.893 20.245 5.68 6.118 4.275 9.18 10.34 9.18 18.205m-13.54-15.017c-4.507-2.868-10.594-8.415-15.45-6.443-8.816 3.58-17.377 7.32-26.794 12.173-9.902 4.953-17.433 13.027-21.703 20.212 6.602 6.7 14.514 10.048 23.74 10.048 8.834 0 17.918-1.588 27.234-4.805 26.513-9.15 17.48-28.316 12.974-31.184"/><path d="M445.574 91.42c0 2.05-5.512 19.928-12.686 38.255-.9 2.305-2.245 5.703-4.04 10.188-1.538 3.46-3.524 5.642-5.958 6.536-1.412.514-4.296.768-8.65.768 0-.894-.162-2.178-.482-3.844-.32-1.664-.48-2.95-.48-3.845 0-2.817 1.086-5.96 3.27-9.422 2.945-4.74 10.38-11.468 10.762-12.496 1.028-3.2 3.01-12.685 5.962-20.762 2.175-5.637 7.56-19.992 12.302-23.837 3.846 3.845 0 16.407 0 18.456m19.995-49.023c0 4.613-3.078 6.92-9.23 6.92-5.64 0-8.458-2.307-8.458-6.92 0-2.308.736-5.51 2.21-9.613 1.472-4.1 2.275-7.176 2.402-9.227 1.28.767 3.716 4.422 7.308 10.957.255.384 1.407 1.538 3.46 3.46 1.537 1.41 2.307 2.884 2.307 4.423"/><path d="M216.897 97.756c-4.057 2.395-9.08 3.953-15.06 4.678-1.962.24-4.924.464-8.885.672-3.963.208-6.928.432-8.89.67-6.695.813-12.564 4.698-17.612 11.65-2.253 3.082-1.876 3.852-6.546 13.84 2.44-.027 6.864.03 13.265.157 6.4.128 10.274 1.245 11.617 3.345-2.37 1.375-8.41 3.466-18.128 6.278-8.487 2.478-14.54 5.207-18.167 8.182-5.27 4.355-7.436 12.338-6.493 20.104 1.028 8.484 7.983 9.275 29.933 3.51 1.74-.454 3.824-.6 6.112-1.15 5.372-1.283 8.77-2.013 10.2-2.185 4.998-.606 8.46.286 10.38 2.68-2.86 1.796-13.89 3.86-33.083 6.19-7.41.897-14.045.75-19.894-.44-8.73-1.75-13.458-5.616-14.184-11.6-.206-1.694 1.326-2.77 4.6-10.913 3.266-8.14 4.92-13.933 4.955-17.383l5.76-9.608 13.16-21.786c3.52-5.32 12.47-6.93 26.847-8.673 3.3-.4 7.048-.492 11.245-.277.91.072 7.198.757 18.865 2.06"/><path d="M588.942 6.543c-2.874.298-6.643 2.58-10.922 6.64.086-.264.185-.54.264-.8l-1.076 1.588c-7.275 7.177-15.92 19.35-24.188 35.643l-29.967 44.154s10.14-11.32 21.84-26.394c-2.685 6.52-5.26 13.483-7.643 20.874-6.107 18.93-19.375 25.89-22.707 32.68-2.948-4.74-5.768-12.236-8.456-22.49-3.335-12.56-5.767-20.635-7.308-24.224-3.588-8.2-8.522-14.096-14.803-17.686-2.05 3.334-3.972 7.497-5.768 12.496-3.845 10.254-3.975 20.57-8.072 27.105-1.028 1.54-4.01 6.39-16.728 17.3-10.546 9.05-7.616 12.41-10.766 16.536l1.346 4.613 2.117 1.154c5.252-.51 8.266-2.754 20.568-18.262 10.253-13.2 15.957-19.287 20.953-25.954 3.972 10.127 9.037 16.6 11.345 27.107 3.076 14.227 1.472 40.053 2.884 46.716l7.497-2.114c3.973-1.28 4.42-2.178 5.19-2.693 3.716-2.818 5.576-7.176 5.576-13.073 0-4.87 6.985-26.4 13.263-41.523 4.485-10.893 10-22.878 16.536-35.95 8.328-17.043 27.103-43.065 32.87-48.062 4.485-3.844 7.114-6.6 7.883-8.266l-1.73-7.113z"/><path d="M295.33 57.776c-3.28-2.015-19.5 5.192-23.068 3.345 21.38-7.542 37.482-14.277 37.482-14.277l-34.31 9.694c4.813-6.49 7.625-10.462 8.363-11.834 2.178-3.97 3.27-7.56 3.27-10.765 0-1.792-.866-3.845-2.597-6.15-1.73-2.308-3.43-3.462-5.095-3.462-6.15 13.072-10.063 21.02-11.725 23.837-3.49 5.873-7.36 10.474-11.6 13.85l-29.89 8.445c-1.115-.016-2.586-.075-4.456-.186-2.18-.125-3.847-.19-5-.19-11.41 0-17.11 2.496-17.11 7.496 0 .13.04.247.046.373l-13.03 3.682c4.156.043 8.83-.32 13.855-1 .46.748 1.08 1.434 1.916 2.04 1.86 1.346 3.878 2.02 6.058 2.02 1.664 0 7.177-1.665 16.533-5 4.74-1.664 8.522-2.432 11.346-2.306l6.726.384-16.535 18.455c-14.482 16.148-29.41 47.613-29.41 55.943 0 14.102 8.175 10.798 8.175 4.52 0-7.317 21.955-43.04 33.25-59.405 7.45-10.787 14.488-21.78 23.46-22.426 16.844-1.212 26.68-7.035 29.12-7.66 7.735-1.98 7.818-6.47 4.23-9.42"/><path d="M166.097 44.792c-1.797-.895-3.528-1.793-5.193-2.69-3.57 0-10.855 5.594-21.834 16.764 4.287-6.004 7.943-12.035 9.633-17.003L126.4 72.176 102.27 97.66c-12.176 12.817-20.376 19.223-24.606 19.223h-1.73c-2.82-25.63-4.55-39.665-5.19-42.1-2.437-9.355-6.152-16.276-11.15-20.762-3.206 2.95-5.257 5.897-6.152 8.843-1.537 5 3.2 15.638 2.69 16.534-1.744.904-3.093 1.945-4.297 3.266.01-.132.034-.275.043-.407l-.265.657c-3.627 4.15-6.013 11.043-14.087 25.03-11.84 20.516-19.843 35.216-23.303 42.776L0 173.787c8.582 0 11.34-6.022 19.8-18.07 2.3-3.28 4.802-7.512 7.48-12.59l-12.254 30.32S40.43 128.89 49.12 96.816c2.445-4.598 4.726-8.45 6.82-11.46.512 2.05 1.217 9.227 2.116 21.532 1.41 19.738 4.805 29.606 10.19 29.606 4.227 0 17.11-10.637 27.105-20.38l29.03-28.258c11.535-11.15 18.968-17.56 22.3-19.225 0 7.69-8.525 23.454-12.11 35.758l-10.574 22.876c-7.564 12.564 2.18 27.238 5.767 16.342 3.27-10.267 4.944-15.695 6.152-19.802 5.123-12.43 1.217-15.572 3.652-20.953 8.076-18.07 12.88-23.26 14.418-27.107 4.74-11.534 13.392-20.056 14.42-25.567l-2.308-5.384z"/><path d="M347.147 38.46c3.76-1.356 21.234-7.175 53.262-13.768C423.5 19.94 432.06 10.297 432.06 0c0 6.387-29.283 17.056-55.01 25.182-6.43 2.007-12.41 3.67-17.984 5.127 20.713-6.114 45.61-14.903 58.48-24.8L327.95 38.126c-4.242 1.206-8 2.465-11.27 3.945-20.164 9.027-30.243 17.68-30.243 25.955 0 8.727 9.48 14.445 28.437 17.15 25.277 3.465 42.805 5.796 52.585 7 18.804 2.857 28.802 9.57 28.21 20.084-3.162 56.286-113.32 63.985-149.112 51.14-14.725-5.288-30.54-4.705-22.226.676 22.92 14.838 49.826 13.1 69.484 12.954 14.463-.105 54.412-11.888 77.492-19.96l-34.466 14.292s38.33-9.807 51.635-21.283c17-9.535 25.25-26.356 25.25-38.725 0-8.874-7.898-16.25-23.698-22.116-7.528-2.856-23.022-6.468-46.493-10.834-20.764-3.91-39.91-4.195-41.98-11.06-2.065-6.864 24.674-21.665 45.59-28.886"/></g></g></svg>