<?xml version="1.0" encoding="UTF-8" standalone="no"?>
<!-- Created with Inkscape (http://www.inkscape.org/) -->

<svg
   xmlns:dc="http://purl.org/dc/elements/1.1/"
   xmlns:cc="http://creativecommons.org/ns#"
   xmlns:rdf="http://www.w3.org/1999/02/22-rdf-syntax-ns#"
   xmlns:svg="http://www.w3.org/2000/svg"
   xmlns="http://www.w3.org/2000/svg"
   xmlns:sodipodi="http://sodipodi.sourceforge.net/DTD/sodipodi-0.dtd"
   xmlns:inkscape="http://www.inkscape.org/namespaces/inkscape"
   width="590.67328"
   height="177.16498"
   id="svg4274"
   version="1.1"
   inkscape:version="0.48.4 r9939"
   sodipodi:docname="valkoinen_pysty.svg">
  <defs
     id="defs4276" />
  <sodipodi:namedview
     id="base"
     pagecolor="#ffffff"
     bordercolor="#666666"
     borderopacity="1.0"
     inkscape:pageopacity="0"
     inkscape:pageshadow="2"
     inkscape:zoom="0.7"
     inkscape:cx="-453.99381"
     inkscape:cy="138.78215"
     inkscape:document-units="px"
     inkscape:current-layer="layer1"
     showgrid="false"
     fit-margin-top="0"
     fit-margin-left="0"
     fit-margin-right="0"
     fit-margin-bottom="0"
     inkscape:window-width="2560"
     inkscape:window-height="1358"
     inkscape:window-x="1200"
     inkscape:window-y="322"
     inkscape:window-maximized="0" />
  <metadata
     id="metadata4279">
    <rdf:RDF>
      <cc:Work
         rdf:about="">
        <dc:format>image/svg+xml</dc:format>
        <dc:type
           rdf:resource="http://purl.org/dc/dcmitype/StillImage" />
        <dc:title></dc:title>
      </cc:Work>
    </rdf:RDF>
  </metadata>
  <g
     inkscape:label="Layer 1"
     inkscape:groupmode="layer"
     id="layer1"
     transform="translate(-18.9493,-9.49398)">
    <g
       id="g4301"
       transform="translate(-1165.7143,-320)"
       style="fill:#323232;fill-opacity:1">
      <path
         id="path4227"
         style="fill:#323232;fill-opacity:1;fill-rule:nonzero;stroke:none"
         d="m 1520.9409,447.29673 c 0,9.13 -6.6087,16.26625 -19.8125,21.41375 -10,3.8825 -20.5337,5.82375 -31.6037,5.82375 -23.2088,0 -34.81,-5.72625 -34.81,-17.185 0,-8.15875 7.5725,-16.07125 22.7187,-23.74125 13.4963,-6.79625 24.86,-10.19625 34.0838,-10.19625 8.1562,0 14.9037,1.89375 20.245,5.68125 6.1175,4.27375 9.1787,10.33875 9.1787,18.20375 m -13.5387,-15.01625 c -4.5075,-2.86875 -10.5938,-8.415 -15.45,-6.44375 -8.8163,3.58125 -17.3775,7.32 -26.7938,12.17375 -9.9025,4.9525 -17.4337,13.02625 -21.7037,20.21125 6.6012,6.7 14.5137,10.04875 23.74,10.04875 8.8337,0 17.9175,-1.58875 27.2337,-4.805 26.5125,-9.15125 17.48,-28.3175 12.9738,-31.185"
         inkscape:connector-curvature="0" />
      <path
         id="path4231"
         style="fill:#323232;fill-opacity:1;fill-rule:nonzero;stroke:none"
         d="m 1630.2381,420.91323 c 0,2.05 -5.5125,19.92875 -12.6863,38.25625 -0.8987,2.305 -2.245,5.7025 -4.0387,10.1875 -1.5388,3.46125 -3.525,5.6425 -5.9588,6.53625 -1.4125,0.515 -4.2962,0.76875 -8.6512,0.76875 0,-0.89375 -0.1613,-2.1775 -0.4813,-3.84375 -0.3187,-1.66375 -0.4812,-2.94875 -0.4812,-3.845 0,-2.81625 1.0875,-5.95875 3.27,-9.42125 2.9462,-4.73875 10.38,-11.4675 10.7637,-12.49625 1.0275,-3.2 3.01,-12.685 5.9613,-20.76125 2.175,-5.6375 7.56,-19.9925 12.3025,-23.8375 3.8462,3.845 0,16.4075 0,18.45625 m 19.995,-49.0225 c 0,4.61375 -3.0775,6.92 -9.2288,6.92 -5.64,0 -8.4587,-2.30625 -8.4587,-6.92 0,-2.3075 0.7362,-5.50875 2.21,-9.6125 1.4725,-4.1 2.275,-7.17625 2.4025,-9.2275 1.2812,0.7675 3.7162,4.4225 7.3075,10.9575 0.255,0.38375 1.4075,1.5375 3.46,3.46 1.5375,1.41125 2.3075,2.88375 2.3075,4.4225"
         inkscape:connector-curvature="0" />
      <path
         id="path4235"
         style="fill:#323232;fill-opacity:1;fill-rule:nonzero;stroke:none"
         d="m 1401.5606,427.24973 c -4.0563,2.395 -9.0788,3.95375 -15.0588,4.67875 -1.9625,0.23875 -4.925,0.46375 -8.8862,0.67125 -3.9625,0.20875 -6.9275,0.4325 -8.8888,0.67125 -6.6962,0.8125 -12.565,4.6975 -17.6125,11.64875 -2.2537,3.0825 -1.8762,3.8525 -6.5462,13.84 2.4412,-0.0263 6.8637,0.0288 13.265,0.1575 6.4012,0.1275 10.275,1.245 11.6175,3.345 -2.37,1.375 -8.41,3.46625 -18.1275,6.2775 -8.4863,2.47875 -14.54,5.2075 -18.1663,8.1825 -5.27,4.355 -7.4362,12.3375 -6.4925,20.10375 1.0275,8.48375 7.9825,9.275 29.9325,3.51125 1.7413,-0.455 3.8238,-0.6 6.1125,-1.15 5.3713,-1.28375 8.7688,-2.01375 10.1988,-2.18625 4.9987,-0.60625 8.4612,0.28625 10.3812,2.68 -2.86,1.79625 -13.89,3.86 -33.0837,6.19 -7.41,0.8975 -14.045,0.75125 -19.8938,-0.44125 -8.7287,-1.7475 -13.4575,-5.615 -14.1837,-11.5975 -0.2063,-1.695 1.3262,-2.77 4.5987,-10.91375 3.2675,-8.14125 4.92,-13.93375 4.9563,-17.38375 l 5.76,-9.60875 13.1612,-21.78625 c 3.52,-5.31875 12.47,-6.92875 26.8463,-8.6725 3.3,-0.40125 7.0487,-0.4925 11.245,-0.2775 0.9112,0.0725 7.1987,0.7575 18.865,2.06"
         inkscape:connector-curvature="0" />
      <path
         id="path4239"
         style="fill:#323232;fill-opacity:1;fill-rule:nonzero;stroke:none"
         d="m 1773.6057,336.03723 c -2.8738,0.2975 -6.6425,2.58125 -10.9213,6.64 0.086,-0.26375 0.185,-0.54 0.2638,-0.8 l -1.0763,1.5875 c -7.275,7.17625 -15.9212,19.34875 -24.1875,35.6425 l -29.9675,44.15375 c 0,0 10.1388,-11.31875 21.8388,-26.39375 -2.6838,6.51875 -5.2575,13.4825 -7.6413,20.87375 -6.1075,18.93 -19.375,25.88875 -22.7075,32.68125 -2.9475,-4.74 -5.7675,-12.2375 -8.4562,-22.4925 -3.335,-12.55875 -5.7663,-20.63375 -7.3075,-24.2225 -3.5875,-8.20125 -8.5213,-14.09625 -14.8025,-17.68625 -2.05,3.33375 -3.9713,7.4975 -5.7675,12.49625 -3.8438,10.25375 -3.9738,20.56875 -8.0713,27.105 -1.0275,1.53875 -4.0087,6.39125 -16.7275,17.30125 -10.5462,9.04875 -7.6162,12.40875 -10.7662,16.535 l 1.3462,4.6125 2.1163,1.15375 c 5.2525,-0.51 8.2662,-2.755 20.5687,-18.2625 10.2525,-13.19875 15.9563,-19.2875 20.9525,-25.95375 3.9725,10.12625 9.0375,16.59875 11.345,27.10625 3.0763,14.22625 1.4725,40.0525 2.8838,46.715 l 7.4975,-2.11375 c 3.9725,-1.28 4.4212,-2.1775 5.1887,-2.6925 3.7175,-2.8175 5.5775,-7.175 5.5775,-13.0725 0,-4.86875 6.985,-26.39875 13.2625,-41.5225 4.485,-10.89375 9.9988,-22.87875 16.5363,-35.95125 8.3287,-17.0425 27.1037,-43.06375 32.8712,-48.06125 4.485,-3.84375 7.1138,-6.59875 7.8825,-8.26625 l -1.7312,-7.1125 z"
         inkscape:connector-curvature="0" />
      <path
         id="path4243"
         style="fill:#323232;fill-opacity:1;fill-rule:nonzero;stroke:none"
         d="m 1479.9951,387.26998 c -3.2813,-2.015 -19.5,5.1925 -23.0688,3.345 21.3788,-7.5425 37.4813,-14.2775 37.4813,-14.2775 l -34.31,9.69375 c 4.8137,-6.49 7.625,-10.4625 8.3637,-11.83375 2.1775,-3.97 3.27,-7.56 3.27,-10.765 0,-1.7925 -0.8662,-3.845 -2.5975,-6.15125 -1.7312,-2.3075 -3.4287,-3.46125 -5.095,-3.46125 -6.1512,13.0725 -10.0625,21.02125 -11.725,23.8375 -3.4887,5.8725 -7.3587,10.47375 -11.5987,13.84875 l -29.89,8.44625 c -1.1163,-0.0162 -2.5875,-0.075 -4.4575,-0.18625 -2.18,-0.125 -3.8463,-0.19125 -4.9988,-0.19125 -11.41,0 -17.1112,2.4975 -17.1112,7.4975 0,0.12875 0.039,0.24625 0.046,0.3725 l -13.03,3.68125 c 4.1562,0.0425 8.8312,-0.32125 13.855,-1.00125 0.4612,0.74875 1.0812,1.435 1.9162,2.04125 1.8588,1.34625 3.8775,2.01875 6.0575,2.01875 1.6638,0 7.1763,-1.66375 16.5325,-4.9975 4.74,-1.665 8.5213,-2.43375 11.345,-2.3075 l 6.7263,0.38375 -16.535,18.455 c -14.4825,16.14875 -29.4112,47.61375 -29.4112,55.94375 0,14.10125 8.1762,10.7975 8.1762,4.51875 0,-7.31625 21.955,-43.04 33.2513,-59.40375 7.4475,-10.7875 14.4862,-21.78 23.4575,-22.42625 16.845,-1.2125 26.68,-7.035 29.1212,-7.66 7.735,-1.97875 7.8175,-6.47125 4.2288,-9.42125"
         inkscape:connector-curvature="0" />
      <path
         id="path4247"
         style="fill:#323232;fill-opacity:1;fill-rule:nonzero;stroke:none"
         d="m 1350.7606,374.28586 c -1.7963,-0.895 -3.5275,-1.7925 -5.1925,-2.69 -3.5688,0 -10.855,5.59375 -21.8338,16.76375 4.2863,-6.00375 7.9425,-12.035 9.6325,-17.0025 l -22.3025,30.3125 -24.13,25.48375 c -12.1762,12.8175 -20.3762,19.22375 -24.6062,19.22375 l -1.7288,0 c -2.8225,-25.63 -4.5512,-39.665 -5.1912,-42.10125 -2.4375,-9.35375 -6.1525,-16.275 -11.15,-20.76125 -3.2063,2.94875 -5.2575,5.89625 -6.1525,8.8425 -1.5363,4.99875 3.2012,15.6375 2.69,16.53375 -1.7438,0.90375 -3.0925,1.945 -4.2963,3.26625 0.01,-0.1325 0.034,-0.275 0.043,-0.4075 l -0.265,0.6575 c -3.6275,4.15 -6.0137,11.0425 -14.0875,25.03125 -11.8412,20.515 -19.8425,35.215 -23.3025,42.775 l -14.2237,23.06875 c 8.5825,0 11.34,-6.0225 19.8,-18.07 2.3012,-3.28125 4.8025,-7.5125 7.48,-12.59125 l -12.2538,30.32125 c 0,0 25.4038,-44.5575 34.0938,-76.6325 2.445,-4.5975 4.7262,-8.45 6.8212,-11.46 0.5113,2.05125 1.2163,9.2275 2.115,21.5325 1.4088,19.7375 4.805,29.60625 10.1888,29.60625 4.2287,0 17.11,-10.6375 27.1062,-20.38 l 29.0288,-28.25875 c 11.535,-11.15 18.9687,-17.55875 22.3012,-19.225 0,7.68875 -8.5262,23.45375 -12.11,35.7575 l -10.575,22.87625 c -7.5637,12.56375 2.1788,27.2375 5.7675,16.34125 3.27,-10.26625 4.9438,-15.695 6.1513,-19.80125 5.1237,-12.43 1.2175,-15.5725 3.6525,-20.95375 8.0762,-18.07125 12.88,-23.26125 14.4175,-27.1075 4.7412,-11.53375 13.3925,-20.05625 14.42,-25.5675 l -2.3075,-5.38375 z"
         inkscape:connector-curvature="0" />
      <path
         id="path4251"
         style="fill:#323232;fill-opacity:1;fill-rule:nonzero;stroke:none"
         d="m 1531.8108,367.95398 c 3.7588,-1.35625 21.2338,-7.175 53.2625,-13.7675 23.0913,-4.7525 31.6525,-14.395 31.6525,-24.6925 0,6.3875 -29.2825,17.05625 -55.01,25.1825 -6.4312,2.00625 -12.4087,3.66875 -17.9837,5.12625 20.7125,-6.1125 45.6087,-14.90125 58.48,-24.7975 l -89.5975,32.61375 c -4.2425,1.20625 -8,2.465 -11.2713,3.945 -20.1637,9.0275 -30.2425,17.68125 -30.2425,25.955 0,8.7275 9.48,14.445 28.4375,17.15125 25.2763,3.46375 42.805,5.795 52.585,6.9975 18.805,2.85875 28.8025,9.57125 28.21,20.085 -3.1612,56.2875 -113.3187,63.98625 -149.1112,51.14125 -14.725,-5.2875 -30.5413,-4.705 -22.2263,0.67625 22.9188,14.8375 49.8263,13.10125 69.4838,12.95375 14.4637,-0.105 54.4125,-11.8875 77.4925,-19.96 l -34.4663,14.2925 c 0,0 38.3288,-9.8075 51.635,-21.28375 17.0013,-9.53375 25.2488,-26.355 25.2488,-38.72375 0,-8.87375 -7.8963,-16.24875 -23.6963,-22.11625 -7.5275,-2.855 -23.0212,-6.46625 -46.4925,-10.8325 -20.7637,-3.91 -39.9112,-4.195 -41.9787,-11.05875 -2.0663,-6.865 24.6725,-21.66625 45.5887,-28.8875"
         inkscape:connector-curvature="0" />
    </g>
  </g>
</svg>
