<svg xmlns="http://www.w3.org/2000/svg" xmlns:xlink="http://www.w3.org/1999/xlink" width="789" height="306" viewBox="0 0 789 306"><path fill="#EF4A8D" d="M0 0h789v306H0z"/><defs><path id="a" d="M0 0h789v306H0z"/></defs><clipPath id="b"><use xlink:href="#a" overflow="visible"/></clipPath><path clip-path="url(#b)" fill-rule="evenodd" clip-rule="evenodd" fill="#fff" d="M338.2 153.174c0-35.93-22.308-57.872-60.155-57.872-38.03 0-60.153 21.94-60.153 57.872s22.122 57.874 60.153 57.874c37.847 0 60.154-21.942 60.154-57.874m-20.114 0c0 33.23-19.014 41.52-40.04 41.52-21.21 0-40.225-8.29-40.225-41.52 0-33.07 19.2-41.52 40.225-41.52 21.027 0 40.04 8.45 40.04 41.52"/><path clip-path="url(#b)" fill-rule="evenodd" clip-rule="evenodd" fill="#fff" d="M462.438 208.874v-98.366c0-12.954-9.273-12.903-19.36-12.903 0 51.327-.02 111.27-.02 111.27h19.38zM574.804 199.382c-3.07 7.115-6.05 8.8-13.717 9.076h-9.834l48.27-111.295h25.6l48.086 111.295-9.023-.03c-8.885.006-12.202-2.037-15.41-9.046l-36.087-87.18h-2.013l-35.873 87.18z"/><path clip-path="url(#b)" fill="#fff" d="M371.765 195.36h46.394c13.388 0 11.947 13.514 11.947 13.514l-58.342-.013-19.38.014V97.58c10.087 0 19.38-.038 19.38 12.916v84.864z"/><path clip-path="url(#b)" fill-rule="evenodd" clip-rule="evenodd" fill="#fff" d="M207.712 175.412c0-25.2-28.054-27.605-49.092-33.223-9.967-2.73-20.486-6.42-20.486-17.174 0-13.48 15.302-16.1 28.59-16.1 5.375 0 11.845 1.294 17.835 2.157 10.497 2.4 13.74-11.17 13.74-11.17-4.206-1.932-17.718-5.217-30.637-5.217-27.5 0-48.17 9.63-48.17 31.293 0 26.8 26.023 29.53 48.54 35.31 9.965 2.566 20.3 6.096 20.3 16.686 0 11.97-11.82 17.05-27.274 17.05-10.19 0-17.11-.746-27.104-4.403-11.754-4.296-18.284 10.15-18.284 10.15 9.998 6.24 25.114 10.106 41.135 10.106 41.567-.002 50.905-21.345 50.905-35.468"/><path clip-path="url(#b)" fill="#fff" d="M509.315 111.095H487.25c-13.393 0-11.953-13.515-11.953-13.515l34.02.012 19.38-.012H562.7s1.437 13.515-11.95 13.515h-22.067l.012 97.78H509.3l.015-97.78z"/></svg>