<svg xmlns="http://www.w3.org/2000/svg" width="288" height="113" viewBox="0 0 288 113">
  <g fill-rule="evenodd" transform="translate(28 24)">
    <path d="M154.289688,15.9951456 L163.366979,15.9951456 L163.366979,49.1019417 L154.289688,49.1019417 L154.289688,15.9951456 Z M48.1533333,15.9951456 L48.1533333,33.8834951 C48.1533333,38.276699 46.1388542,40.8495146 42.1098958,40.8495146 C38.0809375,40.8495146 36.0664583,38.276699 36.0664583,33.8834951 L36.0664583,15.9951456 L26.8920833,15.9951456 L26.8920833,36.1650485 C26.8920833,44.684466 33.2267708,49.7330097 42.2069792,49.7330097 C51.1871875,49.7330097 57.521875,44.6601942 57.521875,36.1650485 L57.521875,15.9951456 L48.1533333,15.9951456 Z M111.912813,15.9951456 L111.912813,33.8834951 C111.912813,38.276699 109.898333,40.8495146 105.869375,40.8495146 C101.840417,40.8495146 99.8259375,38.276699 99.8259375,33.8834951 L99.8259375,15.9951456 L90.6515625,15.9951456 L90.6515625,36.1650485 C90.6515625,44.684466 96.98625,49.7330097 105.966458,49.7330097 C114.946667,49.7330097 121.281354,44.684466 121.281354,36.1650485 L121.281354,15.9951456 L111.912813,15.9951456 Z"/>
    <ellipse cx="158.683" cy="5.777" rx="5.776" ry="5.777"/>
    <path d="M126.766562,15.9951456 L126.766562,49.1019417 L135.843854,49.1019417 L135.843854,24.1504854 L148.513229,24.1504854 L148.513229,15.9951456 L126.766562,15.9951456 Z M223.000417,38.7621359 C221.35,40.6067961 219.044271,41.7961165 216.39875,41.7961165 L216.301667,41.7961165 C211.520312,41.7961165 208.607812,39.4174757 207.491354,35.7524272 L233,35.7524272 L233,32.4271845 C233,22.8883495 226.034271,15.2669903 215.937604,15.2669903 C206.399167,15.2669903 198.681042,22.961165 198.681042,32.5242718 C198.681042,42.0873786 205.840937,49.7815534 216.1075,49.7815534 L216.301667,49.7815534 C221.616979,49.7815534 225.840104,47.7669903 228.776875,44.7330097 L223.000417,38.7621359 Z M216.034687,23.2524272 C219.89375,23.2524272 222.733437,25 223.922708,28.4708738 L207.879687,28.4708738 C209.238854,25.3640777 212.175625,23.2524272 216.034687,23.2524272 Z M191.084271,38.7621359 C189.530937,40.2184466 187.516458,41.1407767 185.210729,41.1407767 L185.016562,41.1407767 C180.332292,41.0436893 176.764479,37.2815534 176.764479,32.5242718 C176.764479,27.8398058 180.332292,24.0048544 185.016562,23.907767 L185.210729,23.907767 C187.686354,23.907767 189.797917,25 191.35125,26.6504854 L197.588854,20.4126214 C194.555,17.2087379 190.259062,15.2669903 185.113646,15.2669903 L185.016562,15.2669903 C175.575208,15.3640777 168.05125,22.961165 168.05125,32.4271845 C168.05125,41.8932039 175.575208,49.5873786 185.016562,49.5873786 L185.113646,49.5873786 C189.967812,49.5873786 194.190937,47.7427184 197.224792,44.8058252 L191.084271,38.7621359 Z M72.1086458,15.9951456 L72.1086458,3.61650485 L63.0313542,3.61650485 L63.0313542,34.6359223 C63.0313542,45.461165 66.5263542,49.0291262 76.9628125,49.0291262 L84.75375,49.0291262 L84.75375,40.5825243 L78.2491667,40.5825243 C72.6426042,40.5825243 72.0115625,39.7572816 72.0115625,34.6116505 L72.0115625,24.1747573 L84.75375,24.1747573 L84.75375,16.0194175 C84.75375,15.9951456 72.1086458,15.9951456 72.1086458,15.9951456 Z M9.07729167,13.8106796 C9.07729167,10.6796117 10.9946875,8.8592233 13.5673958,8.8592233 C15.2178125,8.8592233 16.5041667,9.7815534 17.1352083,10.776699 L22.6446875,5.26699029 C19.805,1.31067961 16.0430208,0.0485436893 12.378125,0.0485436893 C5.679375,0.0485436893 0.169895833,5.9223301 0,13.7135922 L0,49.1262136 L9.07729167,49.1262136 L9.07729167,23.8834951 L20.824375,23.8834951 L20.824375,15.9951456 L9.07729167,15.9951456 L9.07729167,13.8106796 Z"/>
  </g>
</svg>
