<svg height="113" viewBox="0 0 211 113" width="211" xmlns="http://www.w3.org/2000/svg"><path d="m4.85599582.54526678c2.70040934-.02478485 4.90533073 2.15628227 4.93010512 4.85783133.0247744 2.70154905-2.15537259 4.90740099-4.85578193 4.93218589-2.70040934 0-4.90533073-2.15628228-4.93010513-4.85783133 0-.02478486 0-.02478486 0-.04956971-.0247744-2.6767642 2.1058238-4.85783132 4.78145874-4.88261618zm-3.71615965 47.16557662h7.40754489v-33.5091222h-7.40754489zm46.52631873-47.7108434-7.4075449.79311532v16.87848538c-2.0810494-2.2802066-5.7228858-3.891222-9.8849846-3.891222-10.0336311 0-16.697944 6.6919105-16.697944 17.1511187 0 10.4592083 6.6643129 17.1511188 16.697944 17.1511188 4.4346172 0 7.729612-1.8092943 9.8849846-3.8912221l7.4075449 4.1390706zm-16.945688 20.9184165c5.8467579 0 9.6867895 4.2877797 9.6867895 10.0626506s-3.8400316 10.0626506-9.6867895 10.0626506c-5.8467578 0-9.7611126-4.2877797-9.7611126-10.0626506s3.8895804-10.0626506 9.7611126-10.0626506zm55.5689739 12.5907057c.1486464-.842685.1981952-1.68537.1981952-2.5528399.0247744-9.4430293-7.5809657-17.1263339-17.0200112-17.1759036s-17.1191087 7.5841652-17.1686575 17.0271944v.1239243c0 9.5173838 7.5314169 17.1511188 17.2925295 17.1511188 7.6057401 0 14.1461811-4.0895009 16.4254257-10.1865749h-8.8196856c-1.4121407 2.1314974-4.1620988 3.222031-7.6057401 3.222031-4.8557819 0-8.6710391-3.4203098-9.4885943-7.633735zm-25.8644711-6.5679862c1.0652991-3.4946644 4.7071356-6.2953529 8.9435576-6.2953529 4.2364219 0 7.8782584 2.8254734 8.9435575 6.2953529zm56.5104013-12.7394148v3.4946643c-1.412141-1.8092943-5.177849-3.891222-9.637241-3.891222-9.6372407 0-16.8961392 7.113253-16.8961392 17.1511188 0 10.0378657 7.2588985 17.1511187 16.8961392 17.1511187 4.50894 0 8.2251-2.0819277 9.637241-3.891222l7.531417 4.1390706v-34.1535284zm-9.364723 6.7166953c5.450368 0 9.637241 4.5604131 9.637241 10.0626506s-4.162099 10.0626506-9.637241 10.0626506c-5.599013 0-9.8849843-4.5604131-9.8849843-10.0626506s4.3107453-10.0626506 9.8849843-10.0626506zm23.387032 26.7924269h7.407545v-18.4895009c0-4.9569707 2.551763-8.4516351 7.407545-8.4516351 4.855781 0 7.333221 2.5528399 7.333221 8.4516351v18.4895009h7.407545v-20.1005164c0-8.9225473-4.583263-13.8051635-12.932235-13.8051635-4.657587 0-8.398521 2.205852-9.934534 4.2134251l-6.689087-4.4860585zm-127.51382485 12.6898451c-.34684157 0-.74323193.0247848-1.16439669.0495697-.39639036.0247848-.76800633.0743545-1.13962229.173494v8.5259896h1.21394548v-3.222031h.96620151c.54503675 0 1.0900735-.0495697 1.63511025-.1487091.44593915-.0743545.84232952-.2478485 1.23871988-.4709122.32206717-.2230637.59458554-.5204819.76800632-.8674699.19819518-.3965576.27251838-.842685.27251838-1.2888124 0-.9170396-.32206717-1.6110155-.96620151-2.0571428-.69368313-.4709122-1.61033585-.6939759-2.82428133-.6939759zm.09909759 1.0409638c.29729277 0 .61935994.0247849.91665271.0743546.27251838.0495697.52026235.1239243.76800633.2726334.22296958.1239242.39639036.2974182.52026235.5204819.14864639.2478485.19819518.5452668.19819518.8179002 0 .2974182-.04954879.5948365-.19819518.8674699-.12387199.2230636-.29729277.3965576-.52026235.5204819-.27251837.1487091-.54503675.2230637-.84232952.2726334-.37161596.0495697-.74323193.0743545-1.11484789.0743545h-.91665272v-3.3955249c.27251838 0 .66890874-.0247849 1.18917109-.0247849zm6.83773376 1.0409639c-.371616 0-.76800634.0247848-1.1396223.0991394-.24774398.0247848-.49548796.0991394-.74323193.1982788l.14864638.9666093c.19819518-.0743545.42116476-.1239243.64413434-.173494.32206717-.0495697.66890874-.0743545 1.01575031-.0743545.247744 0 .4954879.0247848.7184575.1239242.1734208.0743546.3220672.1982789.4459392.346988.0990976.1487091.1981952.3222031.2229696.4956971.0495488.1982788.0743232.3717728.0743232.5700516v.3222031c-.0247744 0-.0990976-.0247848-.1734208-.0495697s-.1734208-.0247849-.2972928-.0495697c-.123872-.0247849-.2229696-.0247849-.3468416-.0495697-.123872-.0247849-.2477439-.0247849-.3716159-.0247849-.3468416 0-.69368317.0247849-1.04052473.1239243-.29729277.0743546-.59458555.173494-.86710392.346988-.24774398.1487091-.44593916.3717728-.59458554.6196213-.14864639.2726334-.22296958.5948365-.22296958.9170396s.04954879.669191.19819518.9666093c.12387199.2478485.29729277.4709122.52026235.6444062.24774398.1734939.52026235.2974182.79278072.3469879.32206717.0743546.66890872.1239243 1.01575032.1239243.247744 0 .5202623 0 .7680063-.0247849.2725184-.0247848.495488-.0495697.7184575-.0743545.2229696-.0247849.4211648-.0495697.5945856-.0743546.1734208-.0247848.3220672-.0495697.4211647-.0743545v-4.0647161c0-.3469879-.0495487-.669191-.1238719-1.016179-.0743232-.2974182-.2229696-.5700516-.4211648-.7931153-.2229696-.2230637-.4707136-.3965576-.7680063-.5204819-.3963904-.0991394-.7927808-.173494-1.1891711-.1487091zm.0990976 5.7996557c-.371616.0247849-.74323195-.0743545-1.09007352-.2478485-.27251837-.1982788-.44593916-.5204819-.39639036-.8674699 0-.1982788.0495488-.3965576.17342078-.5452668.09909759-.1487091.24774398-.2478485.39639037-.3222031.17342078-.0743545.34684156-.1239242.54503673-.1487091.1734208-.0247848.371616-.0495697.5450368-.0495697.2229695 0 .4459391 0 .6689087.0495697.1486464.0247849.2725184.0495697.3963904.0991394v1.9332186c-.1734208.0495697-.3468416.0495697-.5202624.0743546-.1981952.0247848-.4459391.0247848-.7184575.0247848zm6.5899897-5.7748709c-.4707135 0-.9166527.0495697-1.3625918.1239243-.3468416.0743546-.6936832.173494-1.0157503.2726334v6.2209983h1.1643967v-5.4526678c.0743232-.0247849.1981951-.0495698.4211647-.0991395s.4211648-.0743545.6441344-.0743545c.2725183 0 .5450367.0247848.8175551.0743545.1486464.0247849.2972928.0743546.4459391.1239243l.1981952-1.016179c-.0743232-.0247848-.1486464-.0495697-.2229696-.0495697-.0990975-.0247849-.2229695-.0495697-.3468415-.0743546-.123872-.0247848-.247744-.0495697-.371616-.0495697-.1486464 0-.2725184 0-.371616 0zm3.3693181-1.8836488-1.1643967.1982788v5.7996557c0 .3717729.0247744.7683305.0990976 1.1401033.0495488.2974183.1734208.5948365.371616.8179002.1734208.2230637.4211648.3965576.6936831.4956971.3468416.1239242.7184576.1734939 1.0900735.1734939.3468416 0 .6689088-.0495697.9909759-.1239242.1981952-.0495697.4211648-.1239243.61936-.2230637l-.2229696-.9666093c-.0743232.0247848-.2229696.0991394-.4459392.173494-.2725183.0991394-.5450367.1239242-.8423295.1239242-.1734208 0-.3468416-.0247848-.5202623-.0743545-.1486464-.0495697-.2725184-.1239243-.371616-.2478486-.123872-.1487091-.1981952-.3222031-.2229696-.495697-.0495488-.2726334-.0743232-.5452668-.0743232-.8179002v-2.9989673h2.4526654v-.9666093h-2.4526654zm12.2881013 5.2543889c0-.4709122-.0743232-.9418244-.2229696-1.3879518-.1486464-.3965576-.3468416-.7683304-.61936-1.0657487-.2725183-.2974182-.5945855-.5452668-.9662015-.6939759-.7927807-.3222031-1.6598846-.3222031-2.4526653 0-.371616.1487091-.6936832.3965577-.9662015.6939759-.2725184.3222031-.495488.6691911-.61936 1.0905336-.2972928.9170396-.2972928 1.8836489 0 2.8006885.1486464.3965576.3468416.7683304.61936 1.0657487.2725183.2974182.5945855.5452667.9662015.6939759.7927807.3222031 1.6598846.3222031 2.4526653 0 .371616-.1487092.6936832-.3965577.9662015-.6939759.2725184-.3222031.495488-.6691911.61936-1.0657487.1486464-.4956971.2229696-.9666093.2229696-1.4375216zm-1.2139455 0c.0247744.6196214-.1486464 1.2392427-.495488 1.7349398-.5945855.7435456-1.684659.8674699-2.427891.2726334-.0990975-.0743546-.1981951-.173494-.2725183-.2726334-.6441344-1.0657487-.6441344-2.4041308 0-3.4698795.5945855-.7435456 1.684659-.8674699 2.4278909-.2726334.0990976.0743545.1734208.173494.2725184.2726334.3468416.4956971.5202624 1.1153184.495488 1.7349397zm5.2521723-6.4440619c-.867104 0-1.5112383.2230637-1.9076287.669191-.3963903.4461274-.6193599 1.0905336-.6193599 1.9332186v7.0636833h1.1643967v-5.5022375h2.5022142v-.9666093h-2.5022142v-.5700516c-.0247744-.4213425.0990976-.8426851.3220672-1.189673.2229695-.2974183.5945855-.4461274 1.1396223-.4461274.2229695 0 .4459391.0247849.6689087.0743546.1486464.0247848.2972928.0743545.4211648.1487091l.2229695-.9913941c-.1734208-.0495698-.3468415-.0991395-.5202623-.1239243-.2972928-.0743546-.5945856-.0991394-.8918783-.0991394zm10.1822774 9.9139415c.371616 0 .7680063-.0247849 1.1396223-.0743546.3220672-.0495697.6441343-.0991394.9662015-.173494.247744-.0743545.4954879-.1487091.7432319-.2478485.1734208-.0743546.3468416-.1487091.495488-.2478486l-.5202624-1.5614457c-.3220671.1487091-.6441343.2974182-.9909759.3965576-.5450367.1487091-1.0900735.2230637-1.6598846.1982788-.495488.0247849-.9909759-.0743545-1.4616895-.2726333-.3963903-.173494-.7432319-.4461274-1.0157503-.7931154-.2725184-.3717728-.4707135-.7683304-.5945855-1.2144578-.123872-.4956971-.1981952-1.016179-.1981952-1.5366609 0-.5700517.0743232-1.1153184.247744-1.6605852.1486464-.4461274.3716159-.842685.6689087-1.189673.2725184-.3222031.6441343-.5452668 1.0157503-.7187608.3963904-.1487091.8423295-.2478485 1.2882687-.2478485.4954879 0 .9909759.0743546 1.4616894.1982788.371616.0991395.7184576.2478486 1.0405247.4461274l.5698112-1.5614458c-.0743232-.0495697-.1981952-.0991394-.371616-.1982788-.1981952-.0991394-.4211647-.1982788-.6441343-.2478485-.2972928-.0991395-.61936-.173494-.9414271-.2230637-.3963904-.0743546-.7927807-.0991394-1.1891711-.0991394-.6936831 0-1.3873663.1239242-2.0315006.3717728-.61936.2478485-1.1891711.5948365-1.6351103 1.0657487-.4707135.495697-.8671039 1.0905335-1.1148479 1.7349397-.2725183.7435456-.4211647 1.536661-.3963903 2.3545611-.0247744.7931154.0990976 1.5862307.3468416 2.3545611.1981951.6444062.5450367 1.2392427 1.0157503 1.7349398.4459391.4709122.9909759.842685 1.6103358 1.0657487.6936831.2478485 1.4121407.3717728 2.1553726.346988zm7.4323193-8.4020655c-.4707136 0-.9662015.0495698-1.4369151.1239243-.3468415.0495697-.6936831.1487091-1.0157503.2478486l.2229696 1.4870912c.2725184-.0991394.5698111-.173494.8671039-.2230637.3963904-.0743546.7680063-.0991394 1.1643967-.0991394.2725184 0 .5450367.0247848.7927807.1239242.1981952.0743546.371616.1982789.495488.346988s.2229696.3222031.2725184.5204819c.0495487.1982789.0743231.3965577.0743231.6196214v.2974182c-.2477439-.0495697-.4707135-.0991394-.7184575-.1239243-.6441343-.0743545-1.2634943-.0495697-1.9076286.0991395-.371616.0743545-.7432319.2230636-1.0652991.4213425-.2972928.1982788-.5450367.4461273-.7184575.7683304-.1981952.346988-.2725184.7435456-.2725184 1.1648882-.0247744.4213425.0743232.8179001.247744 1.2144578.1486464.3222031.3716159.5948365.6441343.7931153.2972928.2230637.6441343.3717728 1.0157503.4461274.4211648.0991394.8671039.1487091 1.3130431.1487091.6441343 0 1.2882687-.0495697 1.932403-.1239243.5698111-.0991394.9909759-.1487091 1.2882687-.2230637v-4.8330464c0-.4461274-.0495488-.8674699-.1486464-1.2888124-.0990976-.3717728-.2725184-.7187608-.5450368-.9913942-.2725183-.2974182-.6193599-.5204819-.9909759-.6444062-.4707135-.1982788-.9909759-.2726334-1.5112382-.2726334zm.1486464 6.8901894c-.3963904.0247848-.7680064-.0743546-1.1148479-.2478486-.2972928-.1982788-.4459392-.5452667-.4211648-.9170395 0-.1982789.0495488-.3965577.1486464-.5452668s.247744-.2726334.3963904-.346988c.1734207-.0743545.3716159-.1487091.5698111-.173494.1981952-.0247848.4211648-.0495697.6193599-.0495697.2229696 0 .4211648.0247849.6441344.0495697.1486464.0247849.2972928.0495698.4459391.0991395v2.032358c-.4211647.0743545-.8423295.0991394-1.2882686.0991394zm12.3624244-2.7015491c0-.5948365-.0990976-1.1648881-.2725184-1.7349397-.1734208-.4956971-.4459391-.9418245-.8175551-1.3135973-.3468416-.3717728-.7927807-.6444062-1.2634943-.842685-.5450367-.1982788-1.1148479-.2974183-1.684659-.2974183-.5698112 0-1.1643967.0495698-1.7342079.1487092-.5450367.0991394-1.0157503.1982788-1.3873662.2974182v10.5335628h1.8333054v-3.0981067c.247744.1239243.4954879.2230637.7680063.2974183.3468416.0991394.6936832.1487091 1.0405247.1239242.5202624 0 1.0405247-.0991394 1.5112383-.2974182.4211647-.1982788.8175551-.4956971 1.1148479-.842685.2972927-.3965577.5450367-.8426851.6689087-1.3135973.1486464-.5204819.2229696-1.0905335.2229696-1.6605852zm-1.8828542.0495697c.0247744.6444062-.123872 1.2888124-.4707136 1.8340792-.3220672.4461274-.7927807.6939759-1.4616894.6939759-.2972928 0-.5945856-.0495697-.867104-.1487091-.2229695-.0743546-.4459391-.173494-.6441343-.3222031v-4.5604131c.1734208-.0495697.371616-.0743546.5450367-.0991394.1981952-.0247849.371616-.0247849.5450368-.0247849.8175551 0 1.4121407.2230637 1.7837566.6939759.371616.4709123.5698112 1.0905336.5698112 1.9332186zm10.2070518-3.7672977c-.371616-.0991394-.8423295-.1982789-1.3625919-.2974183-.5698111-.0991394-1.1396223-.1487091-1.7094334-.1239242-.5698112 0-1.1396223.0991394-1.6598847.2974182-.4707135.173494-.8918783.4461274-1.2387198.8179002-.3468416.3469879-.61936.7931153-.7680064 1.2392427-.1734207.5204819-.2725183 1.0657487-.2725183 1.6110154 0 .5452668.0743232 1.1153185.2477439 1.6358004.1486464.4461274.3963904.842685.6936832 1.189673.2972927.3222031.6689087.5700516 1.0900735.7187607.4459391.173494.9166527.2478486 1.3873662.2478486.3468416 0 .6936832-.0495697 1.0405247-.1487092.247744-.0743545.495488-.1734939.7184576-.2726333v.2974182c.0247744.4956971-.123872.9913941-.4707136 1.363167-.3220672.2974182-.8423295.4461273-1.5855614.4461273-.4459392 0-.867104-.0495697-1.3130431-.1239243-.371616-.0743545-.7184575-.1734939-1.0652991-.322203l-.3468416 1.5614457c.8671039.2974183 1.7589823.4461274 2.675635.4461274 1.3378174 0 2.3287933-.2974182 2.9729277-.8922547.6441343-.5948365.9662015-1.5118761.9662015-2.8006885zm-5.1283003 3.5194492c-.0247744-.6196213.1486464-1.2392427.5202623-1.7349398.371616-.4461273.9414271-.6939759 1.5360127-.669191.247744 0 .4954879 0 .7432319.0495697.1981952.0247848.3468416.0495697.495488.0743546v4.1390705c-.1981952.1239243-.3963904.2230637-.6441344.2974183-.2725183.0743545-.5450367.1239242-.8423295.1239242-.4954879.0247849-.9662015-.1734939-1.3130431-.5452667-.3220671-.3965577-.4954879-.9666093-.4954879-1.7349398zm6.8872825.2478485c0 .5700517.0743232 1.1153184.247744 1.6605852.1486464.4956971.3963904.9418245.7432319 1.3135973.3468416.3965576.7927808.6939759 1.2882687.8674699.5945855.2230636 1.2139455.3222031 1.8333054.3222031.2725184 0 .5450368-.0247849.8175552-.0495698.2725183-.0247848.5202623-.0743545.7432319-.1239242.1981952-.0495697.4211647-.0991394.6193599-.1487091.1486464-.0495698.2725184-.0991395.4211648-.1487092l-.247744-1.511876c-.2725184.1239242-.5698111.1982788-.8671039.2478485-.3963904.0743546-.8175551.1239243-1.2387199.1239243-.7680063 0-1.3378175-.173494-1.7342078-.520482-.4211648-.3717728-.6689088-.9170396-.6689088-1.4870912h5.2521723c0-.0991394.0247744-.2230637.0247744-.3469879 0-.1239243 0-.2478486 0-.346988 0-1.3631669-.2972927-2.3793459-.9166527-3.048537-.6193599-.669191-1.4616894-1.016179-2.5765373-1.016179-.4707136 0-.9414271.0991394-1.3625919.2726334-.4459392.173494-.8423295.4461274-1.1891711.7931153-.371616.3717728-.6441343.8179002-.8423295 1.3135973-.247744.5700516-.3468416 1.1896729-.3468416 1.8340791zm1.932403-.842685c.0247744-.2230637.0990976-.4709122.1734208-.6939759s.1981952-.4213425.3468416-.5948365.3220672-.3222031.5450367-.4213425c.2229696-.0991394.495488-.173494.743232-.1487091.2477439 0 .4954879.0495697.7184575.1487091.1981952.0991394.371616.2230637.495488.3965577.1486463.1734939.2477439.3717728.3220671.5948364.0743232.2230637.0990976.4709123.0990976.7187608zm11.5944181 4.7834768h1.8333055v-4.411704c0-.2974182-.0247744-.6196213-.0495488-.9170396-.0247744-.2726334-.0743232-.5452668-.1734208-.8179001.1981952-.1239243.3963903-.2230637.5945855-.2726334.2725184-.0991395.5450368-.1487092.8423295-.1487092.5698112 0 .9662015.173494 1.1643967.5452668s.2972928.9666093.2972928 1.8092943v4.1886403h1.8333054v-4.4860585c0-.4956971-.0495488-.9913942-.123872-1.4870912-.0743232-.4213425-.2229695-.8179002-.4707135-1.1648881-.247744-.3222031-.5698112-.5948365-.9414271-.7435457-.495488-.1982788-1.0157503-.2726334-1.5360127-.2726334-.247744 0-.4954879.0247849-.7184575.0743546s-.4459392.1239243-.6689087.1982788c-.1981952.0743546-.3963904.1487092-.5698112.2478486-.1486464.0743545-.2972928.173494-.4211648.2478485-.2477439-.2478485-.5450367-.4461274-.8671039-.5700516-.4211647-.1487091-.8918783-.2230637-1.3378174-.2230637-.61936 0-1.2139455.0495697-1.8085311.1239243-.4707135.0743545-.9414271.1734939-1.3873662.2974182v7.7080895h1.8333054v-6.444062c.123872-.0247848.2972928-.0495697.5450367-.0743545.2229696-.0247849.4459392-.0495697.6689088-.0495697.5698111 0 .9662015.173494 1.1643967.5452668.1981951.3717728.3220671.9666093.3220671 1.8092943zm10.5538936-10.3104992c.024774-.3222031-.099098-.6196213-.346842-.842685-.222969-.1982788-.495488-.2974182-.7927805-.2974182-.2972927 0-.5945855.0991394-.8175551.2974182-.2229696.2230637-.3468416.5204819-.3468416.842685-.0247744.3222031.0990976.6196214.3468416.8179002.2229696.1982788.5202624.3222031.8175551.2974182.2972925 0 .5698115-.0991394.7927805-.2974182.22297-.1982788.346842-.4956971.346842-.8179002zm-.198195 2.3297763h-1.8333058v7.9807229h1.8333058zm2.180147 7.9807229h1.833305v-6.444062c.123872-.0247848.297293-.0495697.569811-.0743546.247744-.0247848.495488-.0495697.743232-.0495697.272519 0 .545037.0495697.792781.1239243.222969.0743546.39639.2230637.520262.4213425.148647.2230637.22297.4709122.272519.7435456.049548.3717728.099097.7187608.074323 1.0905336v4.1886403h1.833305v-4.4860585c0-.4956971-.049549-.9913942-.148646-1.4870913-.099098-.4213425-.272519-.8179001-.545037-1.1648881-.272518-.3222031-.644134-.5948365-1.040525-.7435456-.520262-.1982788-1.065299-.2726334-1.63511-.2726334-.644134 0-1.263494.0495697-1.882854.1239243-.470714.0743545-.941427.1734939-1.387366.2974182zm10.826411-10.3104992c.024775-.3222031-.099097-.6196213-.346841-.842685-.22297-.1982788-.495488-.2974182-.792781-.2974182s-.594585.0991394-.817555.2974182c-.22297.2230637-.346842.5204819-.346842.842685-.024774.3222031.099098.6196214.346842.8179002.22297.1982788.520262.3222031.817555.2974182.297293 0 .569811-.0991394.792781-.2974182.247744-.1982788.371616-.4956971.346841-.8179002zm-.198195 2.3297763h-1.833305v7.9807229h1.833305zm5.673337 7.9807229h1.907629v-10.5583477h-1.907629zm4.211648 0h1.833305v-6.444062c.123872-.0247848.297293-.0495697.569811-.0743546.247744-.0247848.495488-.0495697.743232-.0495697.272519 0 .545037.0495697.792781.1239243.22297.0743546.39639.2230637.520262.4213425.148647.2230637.22297.4709122.272519.7435456.049549.3717728.099097.7187608.074323 1.0905336v4.1886403h1.833305v-4.4860585c0-.4956971-.049548-.9913942-.148646-1.4870913-.099098-.4213425-.272518-.8179001-.545037-1.1648881-.272518-.3222031-.644134-.5948365-1.040524-.7435456-.520263-.1982788-1.065299-.2726334-1.635111-.2726334-.644134 0-1.263494.0495697-1.882854.1239243-.470713.0743545-.941427.1734939-1.387366.2974182zm12.189004 0c.520262-1.0409639 1.040524-2.2554217 1.560787-3.5938038.569811-1.4375215 1.040524-2.875043 1.461689-4.3621343h-1.907629c-.123872.4461274-.247744.9170396-.39639 1.4375215-.148646.520482-.322067 1.016179-.470714 1.536661-.17342.5204819-.346841 1.016179-.520262 1.4870912s-.346841.9170396-.495488 1.3135972c-.148646-.3965576-.322067-.8179001-.495488-1.3135972-.173421-.4709122-.346841-.9913941-.520262-1.4870912-.173421-.520482-.322067-1.016179-.470714-1.536661-.148646-.5204819-.272518-.9913941-.39639-1.4375215h-1.957177c.421164 1.4870913.891878 2.9246128 1.461689 4.3621343.545037 1.3631669 1.065299 2.5528399 1.560787 3.5938038zm3.592287-3.9407918c0 .5700517.074323 1.1153184.247744 1.6605852.148647.4956971.396391.9418245.743232 1.3135973.346842.3965576.792781.6939759 1.288269.8674699.594585.2230636 1.213945.3222031 1.833305.3222031.272519 0 .545037-.0247849.817555-.0495698.272519-.0247848.520263-.0743545.743232-.1239242.198195-.0495697.421165-.0991394.61936-.1487091.148647-.0495698.272519-.0991395.421165-.1487092l-.247744-1.511876c-.272518.1239242-.569811.1982788-.867104.2478485-.39639.0743546-.817555.1239243-1.23872.1239243-.768006 0-1.337817-.173494-1.734208-.520482-.421164-.3717728-.668908-.9170396-.668908-1.4870912h5.252172c0-.0991394.024774-.2230637.024774-.3469879 0-.1239243 0-.2478486 0-.346988 0-1.3631669-.297292-2.3793459-.916652-3.048537-.61936-.669191-1.46169-1.016179-2.576538-1.016179-.470713 0-.941427.0991394-1.362592.2726334-.445939.173494-.842329.4461274-1.189171.7931153-.371616.3717728-.644134.8179002-.842329 1.3135973-.247744.5700516-.346842 1.1896729-.346842 1.8340791zm1.932403-.842685c.024775-.2230637.074323-.4709122.173421-.6939759.074323-.2230637.198195-.4213425.346842-.5948365.148646-.173494.322067-.3222031.545036-.4213425.22297-.0991394.495488-.173494.743232-.1487091.247744 0 .495488.0495697.718458.1487091.198195.0991394.371616.2230637.495488.3965577.148646.1734939.247744.3717728.322067.5948364.074323.2230637.099097.4709123.099097.7187608zm7.060704 4.7834768h1.833305v-6.444062c.123872-.0247848.297293-.0495697.569811-.0743546.247744-.0247848.495488-.0495697.743232-.0495697.272518 0 .545037.0495697.792781.1239243.222969.0743546.39639.2230637.520262.4213425.148646.2230637.22297.4709122.272518.7435456.049549.3717728.099098.7187608.074324 1.0905336v4.1886403h1.833305v-4.4860585c0-.4956971-.049549-.9913942-.148646-1.4870913-.099098-.4213425-.272519-.8179001-.545037-1.1648881-.272518-.3222031-.644134-.5948365-1.040525-.7435456-.520262-.1982788-1.065299-.2726334-1.63511-.2726334-.644134 0-1.263494.0495697-1.882854.1239243-.470714.0743545-.941427.1734939-1.387366.2974182zm8.671039-3.1724613c0 .4709122.049548.9418244.148646 1.4127367.074323.3717728.247744.7435456.470714 1.0409638.247744.2974183.545036.5204819.916652.6691911.445939.1734939.941427.2478485 1.412141.2230636.421165 0 .817555-.0495697 1.213945-.1487091.272519-.0743545.569812-.173494.84233-.2726334l-.297293-1.4623063c-.198195.0743545-.39639.1487091-.61936.1982788-.297292.0743546-.594585.0991394-.891878.0991394-.495488 0-.84233-.1487091-1.040525-.4213425s-.297292-.7435456-.297292-1.363167v-3.2468158h2.824281v-1.5366609h-2.824281v-2.4041308l-1.833306.2974182z" transform="translate(25 26)"/></svg>