<svg enable-background="new 0 0 653.9 290.3" viewBox="0 0 653.9 290.3" xmlns="http://www.w3.org/2000/svg"><path d="m19.6 2.2c10.9-.1 19.8 8.7 19.9 19.6s-8.7 19.8-19.6 19.9c-10.9 0-19.8-8.7-19.9-19.6 0-.1 0-.1 0-.2-.1-10.8 8.5-19.6 19.3-19.7zm-15 190.3h29.9v-135.2h-29.9zm187.8-192.5-29.9 3.2v68.1c-8.4-9.2-23.1-15.7-39.9-15.7-40.5 0-67.4 27-67.4 69.2s26.9 69.2 67.4 69.2c17.9 0 31.2-7.3 39.9-15.7l29.9 16.7zm-68.4 84.4c23.6 0 39.1 17.3 39.1 40.6s-15.5 40.6-39.1 40.6-39.4-17.3-39.4-40.6 15.7-40.6 39.4-40.6m224.3 50.8c.6-3.4.8-6.8.8-10.3.1-38.1-30.6-69.1-68.7-69.3s-69.1 30.6-69.3 68.7v.5c0 38.4 30.4 69.2 69.8 69.2 30.7 0 57.1-16.5 66.3-41.1h-35.6c-5.7 8.6-16.8 13-30.7 13-19.6 0-35-13.8-38.3-30.8zm-104.4-26.5c4.3-14.1 19-25.4 36.1-25.4s31.8 11.4 36.1 25.4zm228.1-51.4v14.1c-5.7-7.3-20.9-15.7-38.9-15.7-38.9 0-68.2 28.7-68.2 69.2s29.3 69.2 68.2 69.2c18.2 0 33.2-8.4 38.9-15.7l30.4 16.7v-137.8zm-37.8 27.1c22 0 38.9 18.4 38.9 40.6s-16.8 40.6-38.9 40.6c-22.6 0-39.9-18.4-39.9-40.6s17.4-40.6 39.9-40.6m94.4 108.1h29.9v-74.6c0-20 10.3-34.1 29.9-34.1s29.6 10.3 29.6 34.1v74.6h29.9v-81.1c0-36-18.5-55.7-52.2-55.7-18.8 0-33.9 8.9-40.1 17l-27-18.1zm-514.7 51.2c-1.4 0-3 .1-4.7.2-1.6.1-3.1.3-4.6.7v34.4h4.9v-13h3.9c2.2 0 4.4-.2 6.6-.6 1.8-.3 3.4-1 5-1.9 1.3-.9 2.4-2.1 3.1-3.5.8-1.6 1.1-3.4 1.1-5.2 0-3.7-1.3-6.5-3.9-8.3-2.8-1.9-6.5-2.8-11.4-2.8m.4 4.2c1.2 0 2.5.1 3.7.3 1.1.2 2.1.5 3.1 1.1.9.5 1.6 1.2 2.1 2.1.6 1 .8 2.2.8 3.3 0 1.2-.2 2.4-.8 3.5-.5.9-1.2 1.6-2.1 2.1-1.1.6-2.2.9-3.4 1.1-1.5.2-3 .3-4.5.3h-3.7v-13.7c1.1 0 2.7-.1 4.8-.1m27.6 4.2c-1.5 0-3.1.1-4.6.4-1 .1-2 .4-3 .8l.6 3.9c.8-.3 1.7-.5 2.6-.7 1.3-.2 2.7-.3 4.1-.3 1 0 2 .1 2.9.5.7.3 1.3.8 1.8 1.4.4.6.8 1.3.9 2 .2.8.3 1.5.3 2.3v1.3c-.1 0-.4-.1-.7-.2s-.7-.1-1.2-.2-.9-.1-1.4-.2-1-.1-1.5-.1c-1.4 0-2.8.1-4.2.5-1.2.3-2.4.7-3.5 1.4-1 .6-1.8 1.5-2.4 2.5-.6 1.1-.9 2.4-.9 3.7s.2 2.7.8 3.9c.5 1 1.2 1.9 2.1 2.6 1 .7 2.1 1.2 3.2 1.4 1.3.3 2.7.5 4.1.5 1 0 2.1 0 3.1-.1 1.1-.1 2-.2 2.9-.3s1.7-.2 2.4-.3 1.3-.2 1.7-.3v-16.4c0-1.4-.2-2.7-.5-4.1-.3-1.2-.9-2.3-1.7-3.2-.9-.9-1.9-1.6-3.1-2.1-1.6-.4-3.2-.7-4.8-.6m.4 23.4c-1.5.1-3-.3-4.4-1-1.1-.8-1.8-2.1-1.6-3.5 0-.8.2-1.6.7-2.2.4-.6 1-1 1.6-1.3.7-.3 1.4-.5 2.2-.6.7-.1 1.5-.2 2.2-.2.9 0 1.8 0 2.7.2.6.1 1.1.2 1.6.4v7.8c-.7.2-1.4.2-2.1.3-.8.1-1.8.1-2.9.1m26.6-23.3c-1.9 0-3.7.2-5.5.5-1.4.3-2.8.7-4.1 1.1v25.1h4.7v-22c.3-.1.8-.2 1.7-.4s1.7-.3 2.6-.3c1.1 0 2.2.1 3.3.3.6.1 1.2.3 1.8.5l.8-4.1c-.3-.1-.6-.2-.9-.2-.4-.1-.9-.2-1.4-.3s-1-.2-1.5-.2c-.6 0-1.1 0-1.5 0m13.6-7.6-4.7.8v23.4c0 1.5.1 3.1.4 4.6.2 1.2.7 2.4 1.5 3.3.7.9 1.7 1.6 2.8 2 1.4.5 2.9.7 4.4.7 1.4 0 2.7-.2 4-.5.8-.2 1.7-.5 2.5-.9l-.9-3.9c-.3.1-.9.4-1.8.7-1.1.4-2.2.5-3.4.5-.7 0-1.4-.1-2.1-.3-.6-.2-1.1-.5-1.5-1-.5-.6-.8-1.3-.9-2-.2-1.1-.3-2.2-.3-3.3v-12.1h9.9v-3.9h-9.9zm49.6 21.2c0-1.9-.3-3.8-.9-5.6-.6-1.6-1.4-3.1-2.5-4.3s-2.4-2.2-3.9-2.8c-3.2-1.3-6.7-1.3-9.9 0-1.5.6-2.8 1.6-3.9 2.8-1.1 1.3-2 2.7-2.5 4.4-1.2 3.7-1.2 7.6 0 11.3.6 1.6 1.4 3.1 2.5 4.3s2.4 2.2 3.9 2.8c3.2 1.3 6.7 1.3 9.9 0 1.5-.6 2.8-1.6 3.9-2.8 1.1-1.3 2-2.7 2.5-4.3.6-2 .9-3.9.9-5.8m-4.9 0c.1 2.5-.6 5-2 7-2.4 3-6.8 3.5-9.8 1.1-.4-.3-.8-.7-1.1-1.1-2.6-4.3-2.6-9.7 0-14 2.4-3 6.8-3.5 9.8-1.1.4.3.7.7 1.1 1.1 1.4 2 2.1 4.5 2 7m21.2-26c-3.5 0-6.1.9-7.7 2.7s-2.5 4.4-2.5 7.8v28.5h4.7v-22.2h10.1v-3.9h-10.1v-2.3c-.1-1.7.4-3.4 1.3-4.8.9-1.2 2.4-1.8 4.6-1.8.9 0 1.8.1 2.7.3.6.1 1.2.3 1.7.6l.9-4c-.7-.2-1.4-.4-2.1-.5-1.2-.3-2.4-.4-3.6-.4m41.1 40c1.5 0 3.1-.1 4.6-.3 1.3-.2 2.6-.4 3.9-.7 1-.3 2-.6 3-1 .7-.3 1.4-.6 2-1l-2.1-6.3c-1.3.6-2.6 1.2-4 1.6-2.2.6-4.4.9-6.7.8-2 .1-4-.3-5.9-1.1-1.6-.7-3-1.8-4.1-3.2-1.1-1.5-1.9-3.1-2.4-4.9-.5-2-.8-4.1-.8-6.2 0-2.3.3-4.5 1-6.7.6-1.8 1.5-3.4 2.7-4.8 1.1-1.3 2.6-2.2 4.1-2.9 1.6-.6 3.4-1 5.2-1 2 0 4 .3 5.9.8 1.5.4 2.9 1 4.2 1.8l2.3-6.3c-.3-.2-.8-.4-1.5-.8-.8-.4-1.7-.8-2.6-1-1.2-.4-2.5-.7-3.8-.9-1.6-.3-3.2-.4-4.8-.4-2.8 0-5.6.5-8.2 1.5-2.5 1-4.8 2.4-6.6 4.3-1.9 2-3.5 4.4-4.5 7-1.1 3-1.7 6.2-1.6 9.5-.1 3.2.4 6.4 1.4 9.5.8 2.6 2.2 5 4.1 7 1.8 1.9 4 3.4 6.5 4.3 2.8 1 5.7 1.5 8.7 1.4m30-33.9c-1.9 0-3.9.2-5.8.5-1.4.2-2.8.6-4.1 1l.9 6c1.1-.4 2.3-.7 3.5-.9 1.6-.3 3.1-.4 4.7-.4 1.1 0 2.2.1 3.2.5.8.3 1.5.8 2 1.4s.9 1.3 1.1 2.1.3 1.6.3 2.5v1.2c-1-.2-1.9-.4-2.9-.5-2.6-.3-5.1-.2-7.7.4-1.5.3-3 .9-4.3 1.7-1.2.8-2.2 1.8-2.9 3.1-.8 1.4-1.1 3-1.1 4.7-.1 1.7.3 3.3 1 4.9.6 1.3 1.5 2.4 2.6 3.2 1.2.9 2.6 1.5 4.1 1.8 1.7.4 3.5.6 5.3.6 2.6 0 5.2-.2 7.8-.5 2.3-.4 4-.6 5.2-.9v-19.5c0-1.8-.2-3.5-.6-5.2-.4-1.5-1.1-2.9-2.2-4-1.1-1.2-2.5-2.1-4-2.6-1.9-.8-4-1.1-6.1-1.1m.6 27.8c-1.6.1-3.1-.3-4.5-1-1.2-.8-1.8-2.2-1.7-3.7 0-.8.2-1.6.6-2.2s1-1.1 1.6-1.4c.7-.3 1.5-.6 2.3-.7s1.7-.2 2.5-.2c.9 0 1.7.1 2.6.2.6.1 1.2.2 1.8.4v8.2c-1.7.3-3.4.4-5.2.4m49.9-10.9c0-2.4-.4-4.7-1.1-7-.7-2-1.8-3.8-3.3-5.3-1.4-1.5-3.2-2.6-5.1-3.4-2.2-.8-4.5-1.2-6.8-1.2s-4.7.2-7 .6c-2.2.4-4.1.8-5.6 1.2v42.5h7.4v-12.5c1 .5 2 .9 3.1 1.2 1.4.4 2.8.6 4.2.5 2.1 0 4.2-.4 6.1-1.2 1.7-.8 3.3-2 4.5-3.4 1.2-1.6 2.2-3.4 2.7-5.3.6-2.1.9-4.4.9-6.7m-7.6.2c.1 2.6-.5 5.2-1.9 7.4-1.3 1.8-3.2 2.8-5.9 2.8-1.2 0-2.4-.2-3.5-.6-.9-.3-1.8-.7-2.6-1.3v-18.4c.7-.2 1.5-.3 2.2-.4.8-.1 1.5-.1 2.2-.1 3.3 0 5.7.9 7.2 2.8s2.3 4.4 2.3 7.8m41.2-15.2c-1.5-.4-3.4-.8-5.5-1.2-2.3-.4-4.6-.6-6.9-.5-2.3 0-4.6.4-6.7 1.2-1.9.7-3.6 1.8-5 3.3-1.4 1.4-2.5 3.2-3.1 5-.7 2.1-1.1 4.3-1.1 6.5s.3 4.5 1 6.6c.6 1.8 1.6 3.4 2.8 4.8 1.2 1.3 2.7 2.3 4.4 2.9 1.8.7 3.7 1 5.6 1 1.4 0 2.8-.2 4.2-.6 1-.3 2-.7 2.9-1.1v1.2c.1 2-.5 4-1.9 5.5-1.3 1.2-3.4 1.8-6.4 1.8-1.8 0-3.5-.2-5.3-.5-1.5-.3-2.9-.7-4.3-1.3l-1.4 6.3c3.5 1.2 7.1 1.8 10.8 1.8 5.4 0 9.4-1.2 12-3.6s3.9-6.1 3.9-11.3zm-20.7 14.2c-.1-2.5.6-5 2.1-7 1.5-1.8 3.8-2.8 6.2-2.7 1 0 2 0 3 .2.8.1 1.4.2 2 .3v16.7c-.8.5-1.6.9-2.6 1.2-1.1.3-2.2.5-3.4.5-2 .1-3.9-.7-5.3-2.2-1.3-1.6-2-3.9-2-7m27.8 1c0 2.3.3 4.5 1 6.7.6 2 1.6 3.8 3 5.3 1.4 1.6 3.2 2.8 5.2 3.5 2.4.9 4.9 1.3 7.4 1.3 1.1 0 2.2-.1 3.3-.2s2.1-.3 3-.5c.8-.2 1.7-.4 2.5-.6.6-.2 1.1-.4 1.7-.6l-1-6.1c-1.1.5-2.3.8-3.5 1-1.6.3-3.3.5-5 .5-3.1 0-5.4-.7-7-2.1-1.7-1.5-2.7-3.7-2.7-6h21.2c0-.4.1-.9.1-1.4s0-1 0-1.4c0-5.5-1.2-9.6-3.7-12.3s-5.9-4.1-10.4-4.1c-1.9 0-3.8.4-5.5 1.1-1.8.7-3.4 1.8-4.8 3.2-1.5 1.5-2.6 3.3-3.4 5.3-1 2.3-1.4 4.8-1.4 7.4m7.8-3.4c.1-.9.4-1.9.7-2.8s.8-1.7 1.4-2.4 1.3-1.3 2.2-1.7 2-.7 3-.6c1 0 2 .2 2.9.6.8.4 1.5.9 2 1.6.6.7 1 1.5 1.3 2.4s.4 1.9.4 2.9zm46.8 19.3h7.4v-17.8c0-1.2-.1-2.5-.2-3.7-.1-1.1-.3-2.2-.7-3.3.8-.5 1.6-.9 2.4-1.1 1.1-.4 2.2-.6 3.4-.6 2.3 0 3.9.7 4.7 2.2s1.2 3.9 1.2 7.3v16.9h7.4v-18.1c0-2-.2-4-.5-6-.3-1.7-.9-3.3-1.9-4.7-1-1.3-2.3-2.4-3.8-3-2-.8-4.1-1.1-6.2-1.1-1 0-2 .1-2.9.3s-1.8.5-2.7.8c-.8.3-1.6.6-2.3 1-.6.3-1.2.7-1.7 1-1-1-2.2-1.8-3.5-2.3-1.7-.6-3.6-.9-5.4-.9-2.5 0-4.9.2-7.3.5-1.9.3-3.8.7-5.6 1.2v31.1h7.4v-26c.5-.1 1.2-.2 2.2-.3.9-.1 1.8-.2 2.7-.2 2.3 0 3.9.7 4.7 2.2s1.3 3.9 1.3 7.3zm42.6-41.6c.1-1.3-.4-2.5-1.4-3.4-.9-.8-2-1.2-3.2-1.2s-2.4.4-3.3 1.2c-.9.9-1.4 2.1-1.4 3.4-.1 1.3.4 2.5 1.4 3.3.9.8 2.1 1.3 3.3 1.2 1.2 0 2.3-.4 3.2-1.2s1.4-2 1.4-3.3m-.8 9.4h-7.4v32.2h7.4zm8.8 32.2h7.4v-26c.5-.1 1.2-.2 2.3-.3 1-.1 2-.2 3-.2 1.1 0 2.2.2 3.2.5.9.3 1.6.9 2.1 1.7.6.9.9 1.9 1.1 3 .2 1.5.4 2.9.3 4.4v16.9h7.4v-18.1c0-2-.2-4-.6-6-.4-1.7-1.1-3.3-2.2-4.7-1.1-1.3-2.6-2.4-4.2-3-2.1-.8-4.3-1.1-6.6-1.1-2.6 0-5.1.2-7.6.5-1.9.3-3.8.7-5.6 1.2zm43.7-41.6c.1-1.3-.4-2.5-1.4-3.4-.9-.8-2-1.2-3.2-1.2s-2.4.4-3.3 1.2c-.9.9-1.4 2.1-1.4 3.4-.1 1.3.4 2.5 1.4 3.3.9.8 2.1 1.3 3.3 1.2 1.2 0 2.3-.4 3.2-1.2 1-.8 1.5-2 1.4-3.3m-.8 9.4h-7.4v32.2h7.4zm22.9 32.2h7.7v-42.6h-7.7zm17 0h7.4v-26c.5-.1 1.2-.2 2.3-.3 1-.1 2-.2 3-.2 1.1 0 2.2.2 3.2.5.9.3 1.6.9 2.1 1.7.6.9.9 1.9 1.1 3 .2 1.5.4 2.9.3 4.4v16.9h7.4v-18.1c0-2-.2-4-.6-6-.4-1.7-1.1-3.3-2.2-4.7-1.1-1.3-2.6-2.4-4.2-3-2.1-.8-4.3-1.1-6.6-1.1-2.6 0-5.1.2-7.6.5-1.9.3-3.8.7-5.6 1.2zm49.2 0c2.1-4.2 4.2-9.1 6.3-14.5 2.3-5.8 4.2-11.6 5.9-17.6h-7.7c-.5 1.8-1 3.7-1.6 5.8s-1.3 4.1-1.9 6.2c-.7 2.1-1.4 4.1-2.1 6s-1.4 3.7-2 5.3c-.6-1.6-1.3-3.3-2-5.3-.7-1.9-1.4-4-2.1-6-.7-2.1-1.3-4.1-1.9-6.2s-1.1-4-1.6-5.8h-7.9c1.7 6 3.6 11.8 5.9 17.6 2.2 5.5 4.3 10.3 6.3 14.5zm14.5-15.9c0 2.3.3 4.5 1 6.7.6 2 1.6 3.8 3 5.3 1.4 1.6 3.2 2.8 5.2 3.5 2.4.9 4.9 1.3 7.4 1.3 1.1 0 2.2-.1 3.3-.2s2.1-.3 3-.5c.8-.2 1.7-.4 2.5-.6.6-.2 1.1-.4 1.7-.6l-1-6.1c-1.1.5-2.3.8-3.5 1-1.6.3-3.3.5-5 .5-3.1 0-5.4-.7-7-2.1-1.7-1.5-2.7-3.7-2.7-6h21.2c0-.4.1-.9.1-1.4s0-1 0-1.4c0-5.5-1.2-9.6-3.7-12.3s-5.9-4.1-10.4-4.1c-1.9 0-3.8.4-5.5 1.1-1.8.7-3.4 1.8-4.8 3.2-1.5 1.5-2.6 3.3-3.4 5.3-1 2.3-1.4 4.8-1.4 7.4m7.8-3.4c.1-.9.3-1.9.7-2.8.3-.9.8-1.7 1.4-2.4s1.3-1.3 2.2-1.7 2-.7 3-.6c1 0 2 .2 2.9.6.8.4 1.5.9 2 1.6.6.7 1 1.5 1.3 2.4s.4 1.9.4 2.9zm28.5 19.3h7.4v-26c.5-.1 1.2-.2 2.3-.3 1-.1 2-.2 3-.2 1.1 0 2.2.2 3.2.5.9.3 1.6.9 2.1 1.7.6.9.9 1.9 1.1 3 .2 1.5.4 2.9.3 4.4v16.9h7.4v-18.1c0-2-.2-4-.6-6-.4-1.7-1.1-3.3-2.2-4.7-1.1-1.3-2.6-2.4-4.2-3-2.1-.8-4.3-1.1-6.6-1.1-2.6 0-5.1.2-7.6.5-1.9.3-3.8.7-5.6 1.2zm35-12.8c0 1.9.2 3.8.6 5.7.3 1.5 1 3 1.9 4.2 1 1.2 2.2 2.1 3.7 2.7 1.8.7 3.8 1 5.7.9 1.7 0 3.3-.2 4.9-.6 1.1-.3 2.3-.7 3.4-1.1l-1.2-5.9c-.8.3-1.6.6-2.5.8-1.2.3-2.4.4-3.6.4-2 0-3.4-.6-4.2-1.7s-1.2-3-1.2-5.5v-13.1h11.4v-6.2h-11.4v-9.7l-7.4 1.2z"/></svg>