<svg height="113" viewBox="0 0 263 113" width="263" xmlns="http://www.w3.org/2000/svg"><g fill="#323232" fill-rule="evenodd" transform="translate(26 15)"><path d="m120.627283 42.3561348c0 3.2826967-2.3711 5.8484495-7.107202 7.6990562-3.58714 1.3961348-7.365475 2.0940225-11.33644 2.0940225-8.3250352 0-12.4868356-2.0587865-12.4868356-6.1788764 0-2.9339326 2.7165415-5.7779775 8.1499831-8.5357304 4.8412045-2.4438651 8.9176315-3.666337 12.2260505-3.666337 2.925672 0 5.346274.6806292 7.262166 2.0422472 2.194613 1.5370786 3.292995 3.7177528 3.292995 6.5456179m-4.856988-5.3993708c-1.616724-1.031191-3.800217-3.0256179-5.542132-2.3165842-3.162423 1.287191-6.233374 2.6319101-9.611384 4.376809-3.5519867 1.7808539-6.2534622 4.6838651-7.7851711 7.2672359 2.3682301 2.4089888 5.2063756 3.6127641 8.5158711 3.6127641 3.16888 0 6.427439-.5709663 9.769219-1.7276405 9.510585-3.2898876 6.270321-10.1810337 4.653956-11.2122247" fill-rule="nonzero"/><path d="m159.833651 32.8701124c0 .7370786-1.977231 7.1651236-4.550646 13.7546067-.322843.828764-.805313 2.0505169-1.449205 3.6631011-.551702 1.244045-1.264108 2.0285843-2.137218 2.3500225-.506504.184809-1.541035.2761348-3.102876.2761348 0-.3214382-.058112-.7831011-.172901-1.3821123-.114788-.5982922-.172182-1.0606742-.172182-1.3824719 0-1.012854.389563-2.1429214 1.172995-3.3876854 1.056412-1.7042697 3.723451-4.1233259 3.86048-4.4929439.368758-1.1505618 1.079729-4.5608988 2.138653-7.4649887.780203-2.0267865 2.711878-7.1881349 4.4129-8.5706068 1.379615 1.3824719 0 5.8991461 0 6.6358652m7.172488-17.6262472c0 1.6586068-1.104122 2.4880899-3.310931 2.4880899-2.023147 0-3.034003-.8294831-3.034003-2.4880899 0-.8298427.264013-1.9811236.792758-3.4563595.528027-1.4741573.816074-2.58013487.861631-3.31757307.459154.27577528 1.332981 1.58993257 2.621482 3.93959547.091472.1380675.504711.5529888 1.241151 1.244045.551343.5069663.827553 1.0369438.827553 1.5902921" fill-rule="nonzero"/><path d="m77.804 35.1482247c-1.4553029.8611236-3.2571235 1.4213034-5.4022335 1.6819775-.703797.0862922-1.766308.1668315-3.1871743.241618-1.4215837.0747865-2.4851709.1553259-3.1889678.2408989-2.4015906.2923146-4.5068833 1.6891685-6.3176718 4.188764-.8081827 1.1081349-.6729475 1.3849888-2.3481421 4.9761798.8752623-.0097078 2.4622132.0107865 4.7583418.0564495 2.2957699.0460224 3.6854281.4476404 4.167181 1.2026966-.8501523.494382-3.0167851 1.2462022-6.5027682 2.2572584-3.044406.8909663-5.2157022 1.8721798-6.516758 2.9418427-1.890423 1.5658427-2.6673976 4.4361348-2.3291303 7.2284045.3687581 3.050427 2.8636142 3.3348315 10.7373875 1.2620225.6241624-.163236 1.3717225-.2157304 2.1924602-.4134832 1.9270119-.4613033 3.1459222-.7237752 3.6588833-.7856179 1.7928528-.2178877 3.0347208.1028314 3.7234518.9635955-1.0259222.6457528-4.9825381 1.3878651-11.8673368 2.2256179-2.658071.3225169-5.0381387.269663-7.1362571-.1582022-3.1315737-.6292135-4.8275737-2.019236-5.088-4.1707865-.0738951-.6090787.4756548-.9959551 1.6500846-3.9237753 1.17156-2.9267416 1.7648731-5.009618 1.777428-6.2500674l2.0661929-3.4545618 4.7206769-7.8331686c1.2626734-1.9128089 4.4731641-2.4916854 9.6303959-3.118382 1.1837563-.1438202 2.5282166-.1768989 4.0337394-.0995955.3264298.0258877 2.5820237.2721798 6.7671405.7406742"/><path d="m211.261766 2.35253933c-1.030944.10714606-2.382937.92764045-3.917874 2.38741573.030849-.09492135.066362-.19415731.0947-.28764045l-.385976.57096629c-2.609645 2.58049438-5.710728 6.9573034-8.676575 12.8154607l-10.749584 15.8755955s3.63736-4.0701124 7.834315-9.4899775c-.963148 2.3442696-1.886836 4.8478202-2.741652 7.5052584-2.190667 6.8062921-6.950084 9.308764-8.14532 11.7501123-1.057489-1.7042696-2.069062-4.3994606-3.033286-8.0862921-1.196311-4.5159551-2.068704-7.4193258-2.621482-8.7097528-1.287066-2.9483146-3.056961-5.0682247-5.310044-6.3590112-.735364 1.1987415-1.424812 2.6955505-2.069062 4.4929438-1.379256 3.6868314-1.425889 7.395955-2.89554 9.745618-.368758.5537078-1.438444 2.297528-6.000569 6.2202247-3.782998 3.2539326-2.731966 4.4620224-3.861915 5.9455281l.482829 1.6586067.759398.4149214c1.883966-.1833708 2.96513-.9902023 7.37803-6.5661124 3.677895-4.7460674 5.724-6.9346517 7.516135-9.3317753 1.424813 3.6411686 3.241699 5.9685393 4.069611 9.7463371 1.103405 5.1153258.528027 14.4010786 1.034532 16.796764l2.689279-.7600899c1.425171-.4602247 1.585516-.7831011 1.861726-.9682696 1.332981-1.0132135 2.000189-2.5801348 2.000189-4.7004045 0-1.7510112 2.505618-9.4921348 4.757624-14.929618 1.608833-3.9165843 3.587141-8.2257977 5.931696-12.9258427 2.98737-6.1278202 9.722227-15.48404493 11.790931-17.28071908 1.608832-1.38211236 2.551891-2.37303371 2.827742-2.97204495l-.620575-2.55748314z"/><path d="m105.939019 20.7733933c-1.176582-.7244944-6.9949242 1.8667865-8.274816 1.2026966 7.669306-2.7117303 13.44532-5.1333034 13.44532-5.1333034l-12.307479 3.4854832c1.726491-2.3334832 2.735195-3.761618 2.999926-4.2549214.781279-1.4274157 1.172994-2.7182022 1.172994-3.8705618 0-.6443146-.310646-1.3824719-.93158-2.21123594-.620575-.82984269-1.230389-1.24476404-1.827648-1.24476404-2.2060913 4.70004498-3.6097394 7.55775278-4.2059221 8.57060678-1.251912 2.1116404-2.6401354 3.7659325-4.1610829 4.9797752l-10.7219628 3.0364045c-.3999662-.0057528-.9276345-.0269663-1.5984298-.0668764-.7819966-.0449438-1.3799729-.0683146-1.7935702-.0683146-4.0929273 0-6.1375973.8974382-6.1375973 2.695191 0 .0467416.0143486.088809.0165008.1341124l-4.674044 1.3238652c1.4908156.0154606 3.1674451-.1150562 4.9699831-.3595506.1650085.2689438.3874112.5155955.6872961.7334831.6672082.4839551 1.3910931.7262922 2.1730897.7262922.5969002 0 2.5744907-.5986517 5.9306193-1.7977528 1.7003046-.5982922 3.0569611-.874427 4.0699695-.8291236l2.4127107.1380674-5.9313367 6.6355056c-5.1948968 5.8060225-10.54978 17.1192809-10.54978 20.1143371 0 5.070382 2.9324873 3.882427 2.9324873 1.6251685 0-2.6308314 7.8755668-15.4750562 11.9272419-21.3591011 2.6724197-3.8784719 5.1970491-7.8310112 8.4154315-8.0632809 6.0421789-.4357753 9.5704909-2.5294382 10.4457529-2.7541573 2.774653-.7119101 2.804426-2.3262921 1.51736-3.3869663"/><path d="m59.5813266 16.1049888c-.6446092-.3217978-1.2655432-.6446742-1.8628021-.967191-1.2806091 0-3.8938409 2.0113258-7.8321624 6.0275056 1.5378071-2.1587416 2.8492656-4.327191 3.4554924-6.1134382l-8.0003993 10.8990561-8.6557699 9.1627866c-4.3677022 4.6083595-7.3091574 6.9116404-8.8265178 6.9116404h-.6205753c-1.0115736-9.2152809-1.6321489-14.261573-1.8617259-15.1370786-.8741861-3.3635955-2.2068088-5.852045-3.9996616-7.4649888-1.1500372 1.0606742-1.8857597 2.1202697-2.2068088 3.1795056-.5513434 1.7977528 1.147885 5.6226517.9649408 5.944809-.6255973.3250337-1.1095025.6993258-1.5413942 1.1742921.0035871-.0474606.0121962-.0988764.0154247-.146337l-.0950592.2362247c-1.3010559 1.4921348-2.1569476 3.9705168-5.0532048 8.9995505-4.24717427 7.3765394-7.11796276 12.6619326-8.35911335 15.3801349l-5.10198985 8.2937528c3.07848393 0 4.06781726-2.1652135 7.10253807-6.4970787.8250423-1.1793258 1.72254484-2.7009438 2.68318105-4.5267415l-4.39568189 10.901573s9.11277157-16.0204944 12.22999657-27.5527191c.8770559-1.6532135 1.6952826-3.0382023 2.4464298-4.1204494.1836616.7370786.436555 3.317573.7590389 7.7418426.5057868 7.096809 1.723621 10.644854 3.6552961 10.644854 1.5162843 0 6.1375973-3.8245393 9.7229442-7.3276405l10.4134687-10.1601797c4.1377665-4.0089888 6.804088-6.3137079 7.9993232-6.9123596 0 2.7649438-3.0580372 8.4328989-4.3440271 12.856809l-3.7930423 8.2250786c-2.713313 4.5173933.7819966 9.7934382 2.0687039 5.8757753 1.1729949-3.6915056 1.7734822-5.643146 2.2068088-7.1198202 1.8376921-4.4692135.436555-5.5989213 1.3100237-7.5336629 2.8969746-6.4970787 4.6202369-8.3631461 5.1719391-9.7463371 1.7003045-4.1470562 4.8038985-7.2111461 5.1726565-9.1926292l-.827912-1.9358202z"/><path d="m124.526504 13.8283146c1.348765-.4875506 7.616934-2.5797753 19.105828-4.95029213 8.283066-1.70858427 11.353658-5.17573034 11.353658-8.87802247 0 2.29644944-10.504224 6.13249438-19.73286 9.05420225-2.306531.72161797-4.451641 1.31955055-6.451113 1.84341575 7.430044-2.19829216 16.360947-5.35838204 20.977597-8.91685396l-32.139343 11.72746066c-1.521665.433618-2.869713.8862922-4.042708 1.418427-7.23311 3.2456629-10.848588 6.3568539-10.848588 9.3321348 0 3.1377978 3.400609 5.1937079 10.200751 6.1662922 9.067215 1.2458426 15.354755 2.083955 18.862978 2.5168539 6.745259 1.0272359 10.331682 3.4408989 10.119323 7.2212135-1.134254 20.2376629-40.649475 23.0058427-53.4885685 18.3874157-5.2820643-1.9013034-10.9551269-1.6916854-7.9727783.2430562 8.2217259 5.3350112 17.873286 4.7101123 24.9248868 4.657618 5.188081-.0377529 19.518348-4.2743371 27.797469-7.1766293l-12.363439 5.1386967s13.74951-3.5261124 18.5222-7.6523146c6.098139-3.4283146 9.05753-9.4763146 9.05753-13.9235955 0-3.1906517-2.833124-5.8426967-8.500806-7.9518203-2.700399-1.0268764-8.258315-2.325573-16.677692-3.8953708-7.448338-1.4058426-14.316277-1.5083146-15.058815-3.9766292-.740745-2.467955 8.85091-7.7896629 16.353773-10.3859775"/></g></svg>