<svg height="113" viewBox="0 0 256 113" width="256" xmlns="http://www.w3.org/2000/svg"><g fill-rule="evenodd" transform="translate(25 30)"><path d="m188.414599 9.40689655c-8.350365.60689655-15.030657 7.43448275-15.637957 15.77931035-.607299 9.862069 7.135767 18.0551724 16.852555 18.0551724 3.491971 0 8.19854-1.8206896 10.324088-5.462069v5.0068966h6.528467v-16.0827586c.303649-10.6206897-8.19854-18.05517244-18.067153-17.29655175zm11.083211 17.29655175c-.303649 5.6137931-5.162044 9.8620689-10.931387 9.1034483-4.402919-.6068966-7.89489-4.0965518-8.502189-8.4965518-.6073-5.9172414 3.947445-10.9241379 9.716788-10.9241379 5.162044 0 9.413139 4.0965517 9.716788 9.2551724z" fill-rule="nonzero"/><path d="m152.583942 9.40689655c-8.957665.30344828-16.548906 7.13103445-16.548906 17.14482755 0 9.1034483 7.439417 16.8413793 17.00438 16.8413793 6.680292 0 13.208759-3.9448275 15.789781-10.4689655l-6.528467-1.9724138c-1.214599 2.7310345-4.09927 5.0068966-7.287591 5.6137931-4.554745.9103449-8.80584-1.9724138-10.475913-5.0068965l25.354745-6.9793104c-.759124-6.675862-6.528467-15.47586202-17.308029-15.17241375zm-9.413139 16.08275865c0-3.4896552 2.125547-7.5862069 6.680292-9.2551724 5.162044-1.9724138 9.716788.6068965 11.690511 4.2482758z" fill-rule="nonzero"/><path d="m96.8642336 16.2344828v-6.97931039c-6.3766424 0-8.5021898 3.18620689-9.5649635 4.85517239v-3.7931034h-7.2875913v15.475862 16.8413794h7.4394161c0-10.0137931 0-9.862069 0-15.9310345 0-7.2827586 4.2510949-10.1655173 9.4131387-10.4689655z"/><path d="m29.9094891 29.737931-22.16642341-26.09655169h-7.59124087v38.99310349h7.89489051v-26.0965518l22.47007297 26.2482759h6.8321168v-39.14482759h-7.439416z"/><g fill-rule="nonzero"><path d="m131.632117.15172414h-6.983942v12.74482756c-1.670073-2.1241379-6.832117-3.94482756-11.235036-3.48965515-8.350365.60689655-15.0306572 7.43448275-15.6379565 15.77931035-.6072993 9.862069 7.1357665 18.0551724 16.8525545 18.0551724 3.643796 0 8.654015-1.6689655 10.324088-4.8551724v4.2482759h6.528467v-16.0827587c0-.1517241 0-.1517241 0-.3034482 0-.1517242 0-.1517242 0-.3034483zm-7.287591 26.55172416c-.30365 5.6137931-5.162044 9.8620689-10.931387 9.1034483-4.40292-.6068966-7.894891-4.0965518-8.50219-8.4965518-.607299-5.9172414 3.947445-10.9241379 9.716788-10.9241379 5.162044 0 9.413139 4.0965517 9.716789 9.2551724z"/><path d="m58.7562044 9.25517241c-9.4131387 0-17.0043796 7.58620689-17.0043796 16.99310349 0 9.4068965 7.5912409 16.9931034 17.0043796 16.9931034s17.0043795-7.5862069 17.0043795-16.9931034c-.1518248-9.4068966-7.7430657-16.99310349-17.0043795-16.99310349zm0 26.70344829c-5.3138686 0-9.7167883-4.4-9.7167883-9.7103448 0-5.3103449 4.4029197-9.7103449 9.7167883-9.7103449s9.7167883 4.4 9.7167883 9.7103449c0 5.4620689-4.4029197 9.7103448-9.7167883 9.7103448z"/></g></g></svg>