<svg width="256" height="113" viewBox="0 0 256 113" fill="none" xmlns="http://www.w3.org/2000/svg">
<path d="M39.0615 75H49.2664V63.3449H53.0262H53.1336L60.7604 75H72.4693L63.1237 61.1427C66.9908 59.3703 69.5152 55.2883 69.5152 50.4544C69.5152 43.2572 63.4997 37.5639 56.0876 37.5639H39.0615V75ZM49.2664 55.1809V46.8021H55.8191C57.7527 46.8021 59.364 48.3597 59.364 50.7767C59.364 53.5696 57.6452 55.1809 54.9597 55.1809H49.2664ZM83.7317 75H94.3663L96.7833 70.1124H112.144L114.561 75H125.196L104.464 35.0396L83.7317 75ZM100.221 62.217L104.464 53.5696L108.707 62.217H100.221ZM136.772 75H146.977V63.3449H150.737H150.844L158.471 75H170.18L160.834 61.1427C164.702 59.3703 167.226 55.2883 167.226 50.4544C167.226 43.2572 161.21 37.5639 153.798 37.5639H136.772V75ZM146.977 55.1809V46.8021H153.53C155.463 46.8021 157.075 48.3597 157.075 50.7767C157.075 53.5696 155.356 55.1809 152.67 55.1809H146.977ZM181.872 75H209.909V65.9767H192.077V60.2834H208.298V51.9046H192.077V46.7484H209.479V37.5639H181.872V75Z" fill="black"/>
</svg>
