<svg height="113" viewBox="0 0 268 113" width="268" xmlns="http://www.w3.org/2000/svg"><g fill="#282828" fill-rule="evenodd" transform="translate(24 22)"><path d="m.9 25.4h12.7v25.4h-12.7z"/><path d="m30.1 0h12.7v25.4h-12.7z"/><path d="m15.5 0h12.7v50.8h-12.7z"/><path d="m85.8 35.5c0-8.7 7-15.8 15.8-15.8 8.7 0 15.8 7 15.8 15.8v.1c0 8.8-6.9 15.8-15.8 15.8-8.8 0-15.8-7.1-15.8-15.9zm24.2 0c0-4.7-3.6-8.6-8.4-8.6s-8.3 3.9-8.3 8.6 3.5 8.6 8.3 8.6c4.9 0 8.4-3.9 8.4-8.6z" fill-rule="nonzero"/><path d="m123.8 20.1h7.4v23.8h13.4v7.1h-20.8z"/><path d="m152 20.1h7.4v30.8h-7.4z"/><path d="m175.1 27.2h-8.8v-7.1h24.9v7.1h-8.8v23.8h-7.4v-23.8z"/><path d="m202.4 20.1h7.1l11.4 30.8h-7.5l-1.6-4.6h-11.8l-1.6 4.6h-7.4zm-.1 19.8h7.3l-3.6-10.4z" fill-rule="nonzero"/><path d="m55.5 45.2 4.9-4.9c2.5 3 5 4.1 9.2 4.1 2.5 0 3.8-1.2 3.8-2.9 0-2.1-2-2.5-6.4-3.6-4.5-1-9.7-2.7-9.7-9 0-5.4 4.7-9.5 11.3-9.5 5.7 0 9 1.9 12.3 5.5l-4.5 4.5c-2.2-2.5-4.3-3.5-8-3.5-2.5 0-3.7 1.4-3.7 2.7 0 1.9 2.5 2.3 6.3 3.2 4.6 1.1 10.1 2.7 10.1 9.3 0 5.8-4.9 10.1-11.7 10.1-6.9.2-11-2.5-13.9-6z"/></g></svg>