<svg enable-background="new 0 0 1165.46 128" viewBox="0 0 1165.46 128" xmlns="http://www.w3.org/2000/svg"><g fill="#231f20"><path d="m498.93 125.55h35.34l-60-79.64 51.53-43.7h-19.83l-76.38 64.76v-64.76h-28.19v123.34h28.19v-41.76l23.12-19.6z"/><path d="m224.52 2.21-48.89 94.02-48.03-94.02h-31.33l15.98 31.29-32.76 62.99-48.16-94.28h-31.33l63 123.34h15.22l40.88-78.63 40.17 78.63h14.95l64.13-123.34z"/><path d="m592.97 114.07v-47.48h71.52v-11.48h-71.52v-41.42h78.91l9-11.48h-116.09v123.34h116.09l-9-11.48z"/><path d="m1079.54 114.07v-47.48h71.53v-11.48h-71.53v-41.42h85.92v-11.48h-114.1v123.34h114.1v-11.48z"/><path d="m342.23 125.55h31.33l-63-123.33h-17.05l-64.13 123.33h13.83l12.83-24.67h73.59zm-80.21-36.15 31.15-59.91 30.6 59.91z"/><path d="m995.75 2.21v84.56l-80.9-84.56h-33.77v123.34h12.62v-104.33l99.82 104.33h14.85v-123.34z"/><path d="m847.65 61.69c-1.15-43.74-34.53-61.69-75.57-61.69h-.01c-41.76 0-75.62 18.57-75.62 64s33.86 64 75.62 64h.01c40.64 0 73.79-17.6 75.54-60.43.05-1.16.08-2.34.08-3.57 0-.8-.02-1.57-.05-2.31m-75.57 55.09c-29.19 0-44.84-8.8-44.84-52.78s15.66-52.79 44.84-52.79c29.19 0 44.84 8.8 44.84 52.79s-15.66 52.78-44.84 52.78"/></g></svg>