<svg height="113" viewBox="0 0 349 113" width="349" xmlns="http://www.w3.org/2000/svg"><g fill="#231f20" fill-rule="evenodd" transform="translate(25 41)"><path d="m128.36964 32.3683594h9.092624l-15.437393-20.5321875 13.258148-11.26640627h-5.102058l-19.651801 16.69593747v-16.69593747h-7.253002v31.79859377h7.253002v-10.76625l5.948542-5.053125z"/><path d="m57.7667238.56976563-12.5789022 24.23953127-12.3576329-24.23953127h-8.060892l4.1114923 8.06695312-8.4288164 16.23960935-12.39108066-24.30656247h-8.06089194l16.2092624 31.79859377h3.915952l10.5180103-20.2717969 10.3353345 20.2717969h3.8464837l16.5-31.79859377z"/><path d="m152.56518 29.4086719v-12.2409375h18.401372v-2.9596875h-18.401372v-10.67859378h20.302745l2.315608-2.95968749h-29.868782v31.79859377h29.868782l-2.315608-2.9596875z"/><path d="m277.754717 29.4086719v-12.2409375h18.403945v-2.9596875h-18.403945v-10.67859378h22.106346v-2.95968749h-29.356775v31.79859377h29.356775v-2.9596875z"/><path d="m88.0523156 32.3683594h8.0608919l-16.2092624-31.79601565h-4.3867924l-16.5 31.79601565h3.558319l3.3010292-6.3602344h18.9339622zm-20.6372213-9.3199219 8.0145798-15.44554687 7.8730703 15.44554687z" fill-rule="nonzero"/><path d="m256.196398.56976563v21.80062497l-20.814751-21.80062497h-8.68868v31.79859377h3.246999v-26.89757815l25.682676 26.89757815h3.820754v-31.79859377z"/><path d="m218.091767 15.9044531c-.295884-11.27671873-8.88422-15.9044531-19.443397-15.9044531h-.002572c-10.744426 0-19.456261 4.78757813-19.456261 16.5 0 11.7124219 8.711835 16.5 19.456261 16.5h.002572c10.456261 0 18.985421-4.5375 19.435678-15.5796094.012865-.2990625.020583-.6032812.020583-.9203906 0-.20625-.005146-.4047656-.012864-.5955469m-19.443397 14.2028907c-7.510291 0-11.536878-2.26875-11.536878-13.6073438 0-11.33859375 4.02916-13.60992188 11.536878-13.60992188 7.510292 0 11.536879 2.26875 11.536879 13.60992188 0 11.3411719-4.02916 13.6073438-11.536879 13.6073438" fill-rule="nonzero"/></g></svg>