<svg height="134" viewBox="0 0 493 134" width="493" xmlns="http://www.w3.org/2000/svg"><g fill="#000" fill-rule="evenodd" transform="translate(38 35)"><path d="m12 3c-4.97056275 0-9 4.02943725-9 9v42c0 4.9705627 4.02943725 9 9 9h42c4.9705627 0 9-4.0294373 9-9v-42c0-4.97056275-4.0294373-9-9-9zm0-6h42c8.2842712 0 15 6.71572875 15 15v42c0 8.2842712-6.7157288 15-15 15h-42c-8.28427125 0-15-6.7157288-15-15v-42c0-8.28427125 6.71572875-15 15-15z" fill-rule="nonzero"/><path d="m114.58 47.91c.73467.7733372 1.102 1.6433285 1.102 2.61s-.376996 1.7786634-1.131 2.436-1.556329.986-2.407.986c-1.005338 0-1.855997-.3866628-2.552-1.16l-10.44-11.02-2.842 2.61v6.09c0 1.0053384-.3286634 1.8463299-.986 2.523-.6573366.67667-1.4886616 1.015-2.494 1.015s-1.8366634-.33833-2.494-1.015c-.6573366-.6766701-.986-1.5176616-.986-2.523v-35.844c0-1.0053384.3286634-1.84633.986-2.523.6573366-.6766701 1.4886616-1.015 2.494-1.015s1.8366634.3383299 2.494 1.015c.6573366.67667.986 1.5176616.986 2.523v21.46l12.412-12.006c.73467-.7346703 1.585329-1.102 2.552-1.102.850671 0 1.61433.3576631 2.291 1.073s1.015 1.4403297 1.015 2.175c0 .9280046-.463995 1.7979959-1.392 2.61l-8.758 8.062zm33.228-9.396c0 3.0933488-.695993 5.8676544-2.088 8.323s-3.296321 4.3596599-5.713 5.713-5.074985 2.03-7.975 2.03c-2.938681 0-5.606655-.6766599-8.004-2.03s-4.291993-3.2576544-5.684-5.713-2.088-5.2296512-2.088-8.323.695993-5.8676544 2.088-8.323 3.286655-4.3693265 5.684-5.742 5.065319-2.059 8.004-2.059c2.900015 0 5.558321.6863265 7.975 2.059s4.320993 3.2866544 5.713 5.742 2.088 5.2296512 2.088 8.323zm-6.96 0c0-1.8946761-.396329-3.5863259-1.189-5.075s-1.855993-2.6389959-3.19-3.451-2.812992-1.218-4.437-1.218-3.102993.4059959-4.437 1.218-2.397329 1.9623259-3.19 3.451-1.189 3.1803239-1.189 5.075.396329 3.5766593 1.189 5.046 1.855993 2.6099959 3.19 3.422 2.812992 1.218 4.437 1.218 3.102993-.4059959 4.437-1.218 2.397329-1.9526593 3.19-3.422 1.189-3.1513239 1.189-5.046zm40.072 0c0 3.0933488-.695993 5.8676544-2.088 8.323s-3.296321 4.3596599-5.713 5.713-5.074985 2.03-7.975 2.03c-2.938681 0-5.606655-.6766599-8.004-2.03s-4.291993-3.2576544-5.684-5.713-2.088-5.2296512-2.088-8.323.695993-5.8676544 2.088-8.323 3.286655-4.3693265 5.684-5.742 5.065319-2.059 8.004-2.059c2.900015 0 5.558321.6863265 7.975 2.059s4.320993 3.2866544 5.713 5.742 2.088 5.2296512 2.088 8.323zm-6.96 0c0-1.8946761-.396329-3.5863259-1.189-5.075s-1.855993-2.6389959-3.19-3.451-2.812992-1.218-4.437-1.218-3.102993.4059959-4.437 1.218-2.397329 1.9623259-3.19 3.451-1.189 3.1803239-1.189 5.075.396329 3.5766593 1.189 5.046 1.855993 2.6099959 3.19 3.422 2.812992 1.218 4.437 1.218 3.102993-.4059959 4.437-1.218 2.397329-1.9526593 3.19-3.422 1.189-3.1513239 1.189-5.046zm35.374-27.434c1.005338 0 1.836663.3286634 2.494.986s.986 1.5079948.986 2.552v35.844c0 1.0053384-.328663 1.8463299-.986 2.523-.657337.67667-1.488662 1.015-2.494 1.015s-1.826997-.3286634-2.465-.986-.976333-1.4886616-1.015-2.494c-.966671 1.1213389-2.271658 2.0783294-3.915 2.871s-3.373658 1.189-5.191 1.189c-2.668013 0-5.084656-.6863265-7.25-2.059s-3.876327-3.2769878-5.133-5.713-1.885-5.2006512-1.885-8.294.61866-5.8676544 1.856-8.323 2.928989-4.3693265 5.075-5.742 4.51432-2.059 7.105-2.059c1.856009 0 3.595992.3383299 5.22 1.015 1.624008.67667 2.996661 1.5369948 4.118 2.581v-11.368c0-1.0053384.328663-1.84633.986-2.523.657337-.6766701 1.488662-1.015 2.494-1.015zm-11.716 37.12c2.513346 0 4.562659-.9183242 6.148-2.755 1.585341-1.8366759 2.378-4.1469861 2.378-6.931s-.792659-5.1039907-2.378-6.96-3.634654-2.784-6.148-2.784c-2.474679 0-4.504659.9279907-6.09 2.784s-2.378 4.1759861-2.378 6.96.782992 5.0943241 2.349 6.931c1.566008 1.8366758 3.605654 2.755 6.119 2.755zm26.79 2.262c0 1.0053384-.328663 1.8463299-.986 2.523-.657337.67667-1.488662 1.015-2.494 1.015s-1.836663-.33833-2.494-1.015c-.657337-.6766701-.986-1.5176616-.986-2.523v-23.954c0-1.0053384.328663-1.84633.986-2.523.657337-.6766701 1.488662-1.015 2.494-1.015s1.836663.3383299 2.494 1.015c.657337.67667.986 1.5176616.986 2.523zm-3.538-31.262c-1.314673 0-2.242664-.2126645-2.784-.638s-.812-1.1793279-.812-2.262v-1.102c0-1.0826721.289997-1.8366645.87-2.262s1.507994-.638 2.784-.638c1.35334 0 2.300664.2126645 2.842.638s.812 1.1793279.812 2.262v1.102c0 1.1213389-.280331 1.884998-.841 2.291s-1.51766.609-2.871.609zm33.982 28.71c.73467.7733372 1.102 1.6433285 1.102 2.61s-.376996 1.7786634-1.131 2.436-1.556329.986-2.407.986c-1.005338 0-1.855997-.3866628-2.552-1.16l-10.44-11.02-2.842 2.61v6.09c0 1.0053384-.328663 1.8463299-.986 2.523-.657337.67667-1.488662 1.015-2.494 1.015s-1.836663-.33833-2.494-1.015c-.657337-.6766701-.986-1.5176616-.986-2.523v-35.844c0-1.0053384.328663-1.84633.986-2.523.657337-.6766701 1.488662-1.015 2.494-1.015s1.836663.3383299 2.494 1.015c.657337.67667.986 1.5176616.986 2.523v21.46l12.412-12.006c.73467-.7346703 1.585329-1.102 2.552-1.102.850671 0 1.61433.3576631 2.291 1.073s1.015 1.4403297 1.015 2.175c0 .9280046-.463995 1.7979959-1.392 2.61l-8.758 8.062zm11.942 2.552c0 1.0053384-.33833 1.8463299-1.015 2.523-.67667.67667-1.517662 1.015-2.523 1.015-.966671 0-1.778663-.33833-2.436-1.015-.657337-.6766701-.986-1.5176616-.986-2.523v-35.844c0-1.0053384.33833-1.84633 1.015-2.523.67667-.6766701 1.517662-1.015 2.523-1.015.966672 0 1.778663.3383299 2.436 1.015.657337.67667.986 1.5176616.986 2.523zm12.174 0c0 1.0053384-.328663 1.8463299-.986 2.523-.657337.67667-1.488662 1.015-2.494 1.015s-1.836663-.33833-2.494-1.015c-.657337-.6766701-.986-1.5176616-.986-2.523v-23.954c0-1.0053384.328663-1.84633.986-2.523.657337-.6766701 1.488662-1.015 2.494-1.015s1.836663.3383299 2.494 1.015c.657337.67667.986 1.5176616.986 2.523zm-3.538-31.262c-1.314673 0-2.242664-.2126645-2.784-.638s-.812-1.1793279-.812-2.262v-1.102c0-1.0826721.289997-1.8366645.87-2.262s1.507994-.638 2.784-.638c1.35334 0 2.300664.2126645 2.842.638s.812 1.1793279.812 2.262v1.102c0 1.1213389-.280331 1.884998-.841 2.291s-1.51766.609-2.871.609zm24.76 3.19c3.94402 0 6.669992 1.169655 8.178 3.509s2.262 5.577646 2.262 9.715v14.848c0 1.0053384-.328663 1.8463299-.986 2.523-.657337.67667-1.488662 1.015-2.494 1.015s-1.836663-.33833-2.494-1.015c-.657337-.6766701-.986-1.5176616-.986-2.523v-14.848c0-2.1266773-.444662-3.7989939-1.334-5.017s-2.416656-1.827-4.582-1.827c-2.242678 0-4.001994.6476602-5.278 1.943s-1.914 2.9289901-1.914 4.901v14.848c0 1.0053384-.328663 1.8463299-.986 2.523-.657337.67667-1.488662 1.015-2.494 1.015s-1.836663-.33833-2.494-1.015c-.657337-.6766701-.986-1.5176616-.986-2.523v-23.954c0-1.0053384.328663-1.84633.986-2.523.657337-.6766701 1.488662-1.015 2.494-1.015s1.836663.3383299 2.494 1.015c.657337.67667.986 1.5176616.986 2.523v.986c1.044005-1.392007 2.406992-2.5906616 4.089-3.596s3.528323-1.508 5.539-1.508zm22.034 28.072c0 1.0053384-.328663 1.8463299-.986 2.523-.657337.67667-1.488662 1.015-2.494 1.015s-1.836663-.33833-2.494-1.015c-.657337-.6766701-.986-1.5176616-.986-2.523v-23.954c0-1.0053384.328663-1.84633.986-2.523.657337-.6766701 1.488662-1.015 2.494-1.015s1.836663.3383299 2.494 1.015c.657337.67667.986 1.5176616.986 2.523zm-3.538-31.262c-1.314673 0-2.242664-.2126645-2.784-.638s-.812-1.1793279-.812-2.262v-1.102c0-1.0826721.289997-1.8366645.87-2.262s1.507994-.638 2.784-.638c1.35334 0 2.300664.2126645 2.842.638s.812 1.1793279.812 2.262v1.102c0 1.1213389-.280331 1.884998-.841 2.291s-1.51766.609-2.871.609zm33.982 28.71c.73467.7733372 1.102 1.6433285 1.102 2.61s-.376996 1.7786634-1.131 2.436-1.556329.986-2.407.986c-1.005338 0-1.855997-.3866628-2.552-1.16l-10.44-11.02-2.842 2.61v6.09c0 1.0053384-.328663 1.8463299-.986 2.523-.657337.67667-1.488662 1.015-2.494 1.015s-1.836663-.33833-2.494-1.015c-.657337-.6766701-.986-1.5176616-.986-2.523v-35.844c0-1.0053384.328663-1.84633.986-2.523.657337-.6766701 1.488662-1.015 2.494-1.015s1.836663.3383299 2.494 1.015c.657337.67667.986 1.5176616.986 2.523v21.46l12.412-12.006c.73467-.7346703 1.585329-1.102 2.552-1.102.850671 0 1.61433.3576631 2.291 1.073s1.015 1.4403297 1.015 2.175c0 .9280046-.463995 1.7979959-1.392 2.61l-8.758 8.062zm30.212 0c.73467.7733372 1.102 1.6433285 1.102 2.61s-.376996 1.7786634-1.131 2.436-1.556329.986-2.407.986c-1.005338 0-1.855997-.3866628-2.552-1.16l-10.44-11.02-2.842 2.61v6.09c0 1.0053384-.328663 1.8463299-.986 2.523-.657337.67667-1.488662 1.015-2.494 1.015s-1.836663-.33833-2.494-1.015c-.657337-.6766701-.986-1.5176616-.986-2.523v-35.844c0-1.0053384.328663-1.84633.986-2.523.657337-.6766701 1.488662-1.015 2.494-1.015s1.836663.3383299 2.494 1.015c.657337.67667.986 1.5176616.986 2.523v21.46l12.412-12.006c.73467-.7346703 1.585328-1.102 2.552-1.102.850671 0 1.61433.3576631 2.291 1.073s1.015 1.4403297 1.015 2.175c0 .9280046-.463995 1.7979959-1.392 2.61l-8.758 8.062zm29.574-25.52c1.005338 0 1.836663.3286634 2.494.986s.986 1.5079948.986 2.552v24.534c0 1.0053384-.328663 1.8463299-.986 2.523-.657337.67667-1.488662 1.015-2.494 1.015s-1.826997-.3286634-2.465-.986-.976333-1.4886616-1.015-2.494c-.966672 1.1213389-2.271658 2.0783294-3.915 2.871s-3.373658 1.189-5.191 1.189c-2.668013 0-5.084656-.6863265-7.25-2.059s-3.876327-3.2769878-5.133-5.713-1.885-5.2006512-1.885-8.294.61866-5.8676544 1.856-8.323 2.928989-4.3693265 5.075-5.742 4.51432-2.059 7.105-2.059c1.856009 0 3.595992.3383299 5.22 1.015 1.624008.67667 2.996661 1.5369948 4.118 2.581v-.058c0-1.0053384.328663-1.84633.986-2.523.657337-.6766701 1.488662-1.015 2.494-1.015zm-11.716 25.81c2.513346 0 4.562659-.9183242 6.148-2.755 1.585341-1.8366759 2.378-4.1469861 2.378-6.931s-.792659-5.1039907-2.378-6.96-3.634654-2.784-6.148-2.784c-2.474679 0-4.504659.9279907-6.09 2.784s-2.378 4.1759861-2.378 6.96.782992 5.0943241 2.349 6.931c1.566008 1.8366758 3.605654 2.755 6.119 2.755z"/><path d="m5.79198.28125 17.93103 17.7264643-17.93103 17.7262714-5.51499-5.4543857 12.41604-12.2718857-12.41604-12.27223287z" fill="#000" fill-rule="nonzero" transform="translate(23 15)"/></g></svg>