<svg height="512" viewBox="0 0 512 512" width="512" xmlns="http://www.w3.org/2000/svg"><g fill="none" fill-rule="evenodd"><path d="m.5.5h511v511h-511z" fill="#f50" stroke="#979797"/><path d="m416 206.000625c0 60.75125-49.24875 109.999375-110 109.999375-7.0125 0-13.86875-.66375-20.516875-1.918125l-15.0075 16.88375c-2.846519 3.202358-6.926653 5.034529-11.21125 5.034375h-23.264375v25c0 8.284375-6.715625 15-15 15h-25v25c0 8.284375-6.715625 15-15 15h-70c-8.284375 0-15-6.715625-15-15v-48.786875c0-3.978125 1.580625-7.79375 4.393125-10.606875l101.12625-101.12625c-3.576875-10.84625-5.519375-22.435625-5.519375-34.48 0-60.75125 49.248125-109.999375 109.999375-110 60.930625-.000625 110.000625 49.069375 110.000625 110.000625zm-110-30.000625c0 16.56875 13.43125 30 30 30s30-13.43125 30-30-13.43125-30-30-30-30 13.43125-30 30z" fill="#fff" fill-rule="nonzero"/></g></svg>