<svg height="129" viewBox="0 0 143 129" width="143" xmlns="http://www.w3.org/2000/svg"><g fill="none" fill-rule="evenodd"><path d="m125 75 12.5 25h-25zm0-50 12.5 25h-25zm-25 50 12.5 25h-25zm12.5-25 12.5 25h-25zm-100 0 12.5 25h-25zm25-50 12.5 25h-25zm-25 0 12.5 25h-25zm12.5 25 12.5 25h-25zm25 50 12.5 25h-25zm12.5-25 12.5 25h-25zm12.5-25 12.5 25h-25zm12.5 25 12.5 25h-25z" fill="#e8dc64"/><path d="m25 75 12.5-25h-25zm25-50 12.5-25h-25zm-25 0 12.5-25h-25zm12.5 25 12.5-25h-25zm-25 0 12.5-25h-25zm50 50 12.5-25h-25zm37.5-25 12.5-25h-25zm12.5 25 12.5-25h-25zm12.5-25 12.5-25h-25zm0-50 12.5-25h-25zm-112.5 75 12.5-25h-25zm75-50 12.5-25h-25z" fill="#fdf06f"/><path d="m25 75 12.5 25h-25zm50 0 12.5 25h-25zm-37.5-25 12.5 25h-25zm12.5-25 12.5 25h-25zm37.5-25 12.5 25h-25zm25 0 12.5 25h-25zm-12.5 25 12.5 25h-25zm-37.5-25 12.5 25h-25zm25 50 12.5 25h-25z" fill="#ba152b"/><path d="m100 25 12.5-25h-25zm-62.5 75 12.5-25h-25zm12.5-25 12.5-25h-25zm25-50 12.5-25h-25zm12.5 75 12.5-25h-25zm25-50 12.5-25h-25zm-37.5 25 12.5-25h-25zm-12.5-25 12.5-25h-25z" fill="#d31b33"/><path d="m21.78 104.67c1.76 0 3.218.186 4.373.56 1.156.374 2.074.902 2.756 1.584.68.682 1.16 1.485 1.434 2.41.276.923.413 1.946.413 3.068 0 1.54-.324 2.915-.974 4.125s-1.765 2.123-3.35 2.74l4.82 8.843h-5.644l-4.324-8.085h-3.828v8.085h-5.214v-23.33h9.537zm-4.322 11.12h3.762c.858 0 1.562-.077 2.112-.23.55-.155.99-.38 1.32-.678.33-.297.56-.66.693-1.09.132-.428.198-.917.198-1.467 0-.528-.066-1.006-.198-1.436s-.363-.787-.693-1.073-.77-.506-1.32-.66-1.254-.23-2.112-.23h-3.762v6.863zm17.457 12.21v-23.33h16.565v4.29h-11.35v5.114h9.833v4.323h-9.833v5.28h11.35v4.323h-16.564zm26.532-2.41c0 .793-.225 1.453-.677 1.98-.45.53-1.193.793-2.227.793s-1.77-.258-2.21-.775c-.44-.518-.66-1.183-.66-1.997 0-.77.22-1.412.66-1.93.44-.517 1.176-.775 2.21-.775s1.776.258 2.227.775c.452.518.677 1.16.677 1.93zm0-11.714c0 .792-.225 1.452-.677 1.98-.45.528-1.193.792-2.227.792s-1.77-.253-2.21-.76c-.44-.505-.66-1.176-.66-2.012 0-.77.22-1.413.66-1.93.44-.518 1.176-.776 2.21-.776s1.776.258 2.227.775c.452.518.677 1.16.677 1.93zm4.52-9.207h8.482c2.22 0 4.07.3 5.543.906 1.474.606 2.65 1.436 3.53 2.492s1.508 2.293 1.882 3.713.56 2.954.56 4.604c0 1.606-.19 3.113-.577 4.52-.385 1.41-1.022 2.64-1.913 3.697-.892 1.057-2.074 1.887-3.548 2.493-1.474.605-3.3.907-5.478.907h-8.482v-23.33zm9.24 19.007c.99 0 1.838-.18 2.542-.545.703-.363 1.275-.874 1.715-1.534s.764-1.435.974-2.326c.208-.892.312-1.865.312-2.92 0-1.057-.1-2.036-.297-2.938-.198-.902-.517-1.683-.957-2.343s-1.017-1.176-1.733-1.55c-.715-.374-1.59-.56-2.623-.56h-3.96v14.717h4.026zm24.685 4.686c-1.804 0-3.388-.286-4.752-.858s-2.508-1.375-3.432-2.41c-.924-1.033-1.622-2.28-2.096-3.745-.473-1.463-.71-3.096-.71-4.9 0-1.848.243-3.52.727-5.016.483-1.496 1.198-2.772 2.144-3.828s2.117-1.87 3.514-2.442c1.398-.572 2.998-.858 4.802-.858s3.393.28 4.77.84c1.374.563 2.528 1.365 3.463 2.41.936 1.046 1.645 2.3 2.13 3.763.483 1.462.725 3.095.725 4.9 0 1.803-.242 3.453-.726 4.95-.484 1.495-1.204 2.776-2.162 3.843-.957 1.068-2.133 1.892-3.53 2.475-1.398.584-3.02.875-4.868.875zm.198-4.29c1.848 0 3.29-.65 4.323-1.947 1.034-1.298 1.55-3.245 1.55-5.84 0-2.553-.51-4.472-1.533-5.76-1.024-1.287-2.47-1.93-4.34-1.93-1.914 0-3.388.654-4.422 1.963-1.034 1.31-1.55 3.228-1.55 5.758 0 2.574.527 4.51 1.583 5.808 1.057 1.298 2.52 1.947 4.39 1.947zm21.846-19.404 5.445 13.265 5.446-13.266h5.907l1.815 23.33h-5.249l-1.055-13.464-.033-2.442-5.016 11.748h-3.63l-4.983-11.715-.066 2.376-1.023 13.5h-5.28l1.815-23.33h5.906z" fill="#222"/></g></svg>