<?xml version="1.0" encoding="utf-8"?>
<!-- Generator: Adobe Illustrator 23.0.3, SVG Export Plug-In . SVG Version: 6.00 Build 0)  -->
<svg version="1.1" id="Layer_1" xmlns="http://www.w3.org/2000/svg" xmlns:xlink="http://www.w3.org/1999/xlink" x="0px" y="0px"
	 viewBox="0 0 1165.46 128" style="enable-background:new 0 0 1165.46 128;" xml:space="preserve">
<style type="text/css">
	.st0{fill:#231F20;}
</style>
<polygon class="st0" points="498.93,125.55 534.27,125.55 474.27,45.91 525.8,2.21 505.97,2.21 429.59,66.97 429.59,2.21 
	401.4,2.21 401.4,125.55 429.59,125.55 429.59,83.79 452.71,64.19 "/>
<polygon class="st0" points="224.52,2.21 175.63,96.23 127.6,2.21 96.27,2.21 112.25,33.5 79.49,96.49 31.33,2.21 0,2.21 63,125.55 
	78.22,125.55 119.1,46.92 159.27,125.55 174.22,125.55 238.35,2.21 "/>
<polygon class="st0" points="592.97,114.07 592.97,66.59 664.49,66.59 664.49,55.11 592.97,55.11 592.97,13.69 671.88,13.69 
	680.88,2.21 564.79,2.21 564.79,125.55 680.88,125.55 671.88,114.07 "/>
<polygon class="st0" points="1079.54,114.07 1079.54,66.59 1151.07,66.59 1151.07,55.11 1079.54,55.11 1079.54,13.69 1165.46,13.69 
	1165.46,2.21 1051.36,2.21 1051.36,125.55 1165.46,125.55 1165.46,114.07 "/>
<path class="st0" d="M342.23,125.55h31.33l-63-123.33h-17.05l-64.13,123.33h13.83l12.83-24.67h73.59L342.23,125.55z M262.02,89.4
	l31.15-59.91l30.6,59.91H262.02z"/>
<polygon class="st0" points="995.75,2.21 995.75,86.77 914.85,2.21 881.08,2.21 881.08,125.55 893.7,125.55 893.7,21.22 
	993.52,125.55 1008.37,125.55 1008.37,2.21 "/>
<path class="st0" d="M847.65,61.69C846.5,17.95,813.12,0,772.08,0h-0.01c-41.76,0-75.62,18.57-75.62,64s33.86,64,75.62,64v0
	c0,0,0.01,0,0.01,0c40.64,0,73.79-17.6,75.54-60.43c0.05-1.16,0.08-2.34,0.08-3.57C847.7,63.2,847.68,62.43,847.65,61.69
	 M772.08,116.78c-29.19,0-44.84-8.8-44.84-52.78s15.66-52.79,44.84-52.79c29.19,0,44.84,8.8,44.84,52.79
	S801.26,116.78,772.08,116.78"/>
</svg>
