<svg width="72" height="72" viewBox="0 0 72 72" fill="none" xmlns="http://www.w3.org/2000/svg">
<path d="M15 6C10.0294 6 6 10.0294 6 15V57C6 61.9706 10.0294 66 15 66H57C61.9706 66 66 61.9706 66 57V15C66 10.0294 61.9706 6 57 6H15ZM15 0H57C65.2843 0 72 6.71573 72 15V57C72 65.2843 65.2843 72 57 72H15C6.71573 72 0 65.2843 0 57V15C0 6.71573 6.71573 0 15 0Z" fill="black"/>
<path d="M31.792 18.2812L49.723 36.0077L31.792 53.734L26.277 48.2796L38.693 36.0077L26.277 23.7355L31.792 18.2812Z" fill="black"/>
</svg>
