<svg width="179" height="34" viewBox="0 0 179 34" fill="none" xmlns="http://www.w3.org/2000/svg">
<path d="M53.1438 21.7387C53.405 22.0137 53.5356 22.323 53.5356 22.6668C53.5356 23.0105 53.3981 23.2993 53.1231 23.533C52.8619 23.7668 52.58 23.8837 52.2775 23.8837C51.92 23.8837 51.6175 23.7462 51.37 23.4712L47.6575 19.5524L46.6469 20.4805V22.6462C46.6469 23.0037 46.53 23.3062 46.2963 23.5537C46.0625 23.7874 45.7669 23.9043 45.4094 23.9043C45.0519 23.9043 44.7563 23.7874 44.5225 23.5537C44.2888 23.3062 44.1719 23.0037 44.1719 22.6462V9.89991C44.1719 9.54241 44.2888 9.24678 44.5225 9.01303C44.7563 8.76553 45.0519 8.64178 45.4094 8.64178C45.7669 8.64178 46.0625 8.76553 46.2963 9.01303C46.53 9.24678 46.6469 9.54241 46.6469 9.89991V17.5312L51.0606 13.2618C51.3219 13.0005 51.6244 12.8699 51.9681 12.8699C52.2706 12.8699 52.5387 13.0005 52.7725 13.2618C53.02 13.5093 53.1438 13.7637 53.1438 14.0249C53.1438 14.3549 52.9788 14.6643 52.6488 14.953L49.5344 17.8199L53.1438 21.7387Z" fill="white"/>
<path d="M66.4649 18.3974C66.4649 19.4974 66.2174 20.4874 65.7224 21.3674C65.2274 22.2337 64.5468 22.9074 63.6805 23.3887C62.828 23.8699 61.8862 24.1105 60.8549 24.1105C59.8099 24.1105 58.8612 23.8699 58.0087 23.3887C57.1562 22.9074 56.4824 22.2337 55.9874 21.3674C55.4924 20.4874 55.2449 19.4974 55.2449 18.3974C55.2449 17.2974 55.4924 16.3143 55.9874 15.448C56.4824 14.568 57.1562 13.8874 58.0087 13.4062C58.8612 12.9112 59.8099 12.6637 60.8549 12.6637C61.8862 12.6637 62.828 12.9112 63.6805 13.4062C64.5468 13.8874 65.2274 14.568 65.7224 15.448C66.2174 16.3143 66.4649 17.2974 66.4649 18.3974ZM63.9899 18.3974C63.9899 17.7237 63.8455 17.1255 63.5568 16.603C63.2818 16.0668 62.9037 15.6543 62.4224 15.3655C61.9549 15.0768 61.4324 14.9324 60.8549 14.9324C60.2774 14.9324 59.748 15.0768 59.2668 15.3655C58.7993 15.6543 58.4212 16.0668 58.1324 16.603C57.8574 17.1255 57.7199 17.7237 57.7199 18.3974C57.7199 19.0712 57.8574 19.6693 58.1324 20.1918C58.4212 20.7143 58.7993 21.1199 59.2668 21.4087C59.748 21.6974 60.2774 21.8418 60.8549 21.8418C61.4324 21.8418 61.9549 21.6974 62.4224 21.4087C62.9037 21.1199 63.2818 20.7143 63.5568 20.1918C63.8455 19.6693 63.9899 19.0712 63.9899 18.3974Z" fill="white"/>
<path d="M79.7527 18.3974C79.7527 19.4974 79.5052 20.4874 79.0102 21.3674C78.5152 22.2337 77.8346 22.9074 76.9684 23.3887C76.1159 23.8699 75.174 24.1105 74.1427 24.1105C73.0977 24.1105 72.149 23.8699 71.2965 23.3887C70.444 22.9074 69.7702 22.2337 69.2752 21.3674C68.7802 20.4874 68.5327 19.4974 68.5327 18.3974C68.5327 17.2974 68.7802 16.3143 69.2752 15.448C69.7702 14.568 70.444 13.8874 71.2965 13.4062C72.149 12.9112 73.0977 12.6637 74.1427 12.6637C75.174 12.6637 76.1159 12.9112 76.9684 13.4062C77.8346 13.8874 78.5152 14.568 79.0102 15.448C79.5052 16.3143 79.7527 17.2974 79.7527 18.3974ZM77.2777 18.3974C77.2777 17.7237 77.1334 17.1255 76.8446 16.603C76.5696 16.0668 76.1915 15.6543 75.7102 15.3655C75.2427 15.0768 74.7202 14.9324 74.1427 14.9324C73.5652 14.9324 73.0359 15.0768 72.5546 15.3655C72.0871 15.6543 71.709 16.0668 71.4202 16.603C71.1452 17.1255 71.0077 17.7237 71.0077 18.3974C71.0077 19.0712 71.1452 19.6693 71.4202 20.1918C71.709 20.7143 72.0871 21.1199 72.5546 21.4087C73.0359 21.6974 73.5652 21.8418 74.1427 21.8418C74.7202 21.8418 75.2427 21.6974 75.7102 21.4087C76.1915 21.1199 76.5696 20.7143 76.8446 20.1918C77.1334 19.6693 77.2777 19.0712 77.2777 18.3974Z" fill="white"/>
<path d="M91.3699 8.64178C91.7274 8.64178 92.0231 8.75866 92.2568 8.99241C92.4906 9.22616 92.6074 9.52866 92.6074 9.89991V22.6462C92.6074 23.0037 92.4906 23.3062 92.2568 23.5537C92.0231 23.7874 91.7274 23.9043 91.3699 23.9043C91.0124 23.9043 90.7168 23.7874 90.4831 23.5537C90.2631 23.3199 90.1462 23.0243 90.1324 22.6668C89.7887 23.0655 89.3212 23.4093 88.7299 23.698C88.1524 23.973 87.5406 24.1105 86.8943 24.1105C85.9456 24.1105 85.0862 23.8699 84.3162 23.3887C83.5462 22.8937 82.9343 22.213 82.4806 21.3468C82.0406 20.4805 81.8206 19.4974 81.8206 18.3974C81.8206 17.2974 82.0406 16.3143 82.4806 15.448C82.9206 14.568 83.5187 13.8874 84.2749 13.4062C85.0449 12.9112 85.8906 12.6637 86.8118 12.6637C87.4718 12.6637 88.0906 12.7874 88.6681 13.0349C89.2456 13.2687 89.7337 13.5712 90.1324 13.9424V9.89991C90.1324 9.54241 90.2493 9.24678 90.4831 9.01303C90.7168 8.76553 91.0124 8.64178 91.3699 8.64178ZM87.2037 21.8418C88.0974 21.8418 88.8262 21.5187 89.3899 20.8724C89.9537 20.2124 90.2356 19.3874 90.2356 18.3974C90.2356 17.4074 89.9537 16.5824 89.3899 15.9224C88.8262 15.2624 88.0974 14.9324 87.2037 14.9324C86.3237 14.9324 85.6018 15.2624 85.0381 15.9224C84.4743 16.5824 84.1924 17.4074 84.1924 18.3974C84.1924 19.3874 84.4674 20.2124 85.0174 20.8724C85.5812 21.5187 86.3099 21.8418 87.2037 21.8418Z" fill="white"/>
<path d="M98.239 22.6462C98.239 23.0037 98.1221 23.3062 97.8884 23.5537C97.6546 23.7874 97.359 23.9043 97.0015 23.9043C96.644 23.9043 96.3484 23.7874 96.1146 23.5537C95.8809 23.3062 95.764 23.0037 95.764 22.6462V14.128C95.764 13.7705 95.8809 13.4749 96.1146 13.2412C96.3484 12.9937 96.644 12.8699 97.0015 12.8699C97.359 12.8699 97.6546 12.9937 97.8884 13.2412C98.1221 13.4749 98.239 13.7705 98.239 14.128V22.6462ZM96.9809 11.5293C96.5134 11.5293 96.1834 11.4537 95.9909 11.3024C95.7984 11.1512 95.7021 10.883 95.7021 10.498V10.1062C95.7021 9.72116 95.8053 9.45303 96.0115 9.30178C96.2178 9.15053 96.5478 9.07491 97.0015 9.07491C97.4828 9.07491 97.8196 9.15053 98.0121 9.30178C98.2047 9.45303 98.3009 9.72116 98.3009 10.1062V10.498C98.3009 10.8968 98.1978 11.1718 97.9915 11.323C97.799 11.4605 97.4622 11.5293 96.9809 11.5293Z" fill="white"/>
<path d="M110.58 21.7387C110.841 22.0137 110.971 22.323 110.971 22.6668C110.971 23.0105 110.834 23.2993 110.559 23.533C110.298 23.7668 110.016 23.8837 109.713 23.8837C109.356 23.8837 109.053 23.7462 108.806 23.4712L105.093 19.5524L104.083 20.4805V22.6462C104.083 23.0037 103.966 23.3062 103.732 23.5537C103.498 23.7874 103.203 23.9043 102.845 23.9043C102.488 23.9043 102.192 23.7874 101.958 23.5537C101.725 23.3062 101.608 23.0037 101.608 22.6462V9.89991C101.608 9.54241 101.725 9.24678 101.958 9.01303C102.192 8.76553 102.488 8.64178 102.845 8.64178C103.203 8.64178 103.498 8.76553 103.732 9.01303C103.966 9.24678 104.083 9.54241 104.083 9.89991V17.5312L108.496 13.2618C108.758 13.0005 109.06 12.8699 109.404 12.8699C109.706 12.8699 109.975 13.0005 110.208 13.2618C110.456 13.5093 110.58 13.7637 110.58 14.0249C110.58 14.3549 110.415 14.6643 110.085 14.953L106.97 17.8199L110.58 21.7387Z" fill="white"/>
<path d="M116.343 22.6462C116.343 23.0037 116.22 23.3062 115.972 23.5537C115.738 23.7874 115.443 23.9043 115.085 23.9043C114.741 23.9043 114.453 23.7874 114.219 23.5537C113.985 23.3062 113.868 23.0037 113.868 22.6462V9.89991C113.868 9.54241 113.985 9.24678 114.219 9.01303C114.466 8.76553 114.769 8.64178 115.126 8.64178C115.47 8.64178 115.759 8.76553 115.993 9.01303C116.226 9.24678 116.343 9.54241 116.343 9.89991V22.6462Z" fill="white"/>
<path d="M122.17 22.6462C122.17 23.0037 122.054 23.3062 121.82 23.5537C121.586 23.7874 121.29 23.9043 120.933 23.9043C120.575 23.9043 120.28 23.7874 120.046 23.5537C119.812 23.3062 119.695 23.0037 119.695 22.6462V14.128C119.695 13.7705 119.812 13.4749 120.046 13.2412C120.28 12.9937 120.575 12.8699 120.933 12.8699C121.29 12.8699 121.586 12.9937 121.82 13.2412C122.054 13.4749 122.17 13.7705 122.17 14.128V22.6462ZM120.912 11.5293C120.445 11.5293 120.115 11.4537 119.922 11.3024C119.73 11.1512 119.634 10.883 119.634 10.498V10.1062C119.634 9.72116 119.737 9.45303 119.943 9.30178C120.149 9.15053 120.479 9.07491 120.933 9.07491C121.414 9.07491 121.751 9.15053 121.944 9.30178C122.136 9.45303 122.232 9.72116 122.232 10.1062V10.498C122.232 10.8968 122.129 11.1718 121.923 11.323C121.73 11.4605 121.394 11.5293 120.912 11.5293Z" fill="white"/>
<path d="M131.232 12.6637C132.634 12.6637 133.603 13.083 134.14 13.9218C134.676 14.7468 134.944 15.8949 134.944 17.3662V22.6462C134.944 23.0037 134.827 23.3062 134.593 23.5537C134.36 23.7874 134.064 23.9043 133.707 23.9043C133.349 23.9043 133.053 23.7874 132.82 23.5537C132.586 23.3062 132.469 23.0037 132.469 22.6462V17.3662C132.469 16.6099 132.311 16.0187 131.995 15.5924C131.678 15.1524 131.135 14.9324 130.365 14.9324C129.568 14.9324 128.942 15.1662 128.488 15.6337C128.035 16.0874 127.808 16.6649 127.808 17.3662V22.6462C127.808 23.0037 127.691 23.3062 127.457 23.5537C127.223 23.7874 126.928 23.9043 126.57 23.9043C126.213 23.9043 125.917 23.7874 125.683 23.5537C125.45 23.3062 125.333 23.0037 125.333 22.6462V14.128C125.333 13.7705 125.45 13.4749 125.683 13.2412C125.917 12.9937 126.213 12.8699 126.57 12.8699C126.928 12.8699 127.223 12.9937 127.457 13.2412C127.691 13.4749 127.808 13.7705 127.808 14.128V14.4787C128.179 13.9837 128.66 13.5574 129.252 13.1999C129.857 12.8424 130.517 12.6637 131.232 12.6637Z" fill="white"/>
<path d="M140.569 22.6462C140.569 23.0037 140.452 23.3062 140.218 23.5537C139.984 23.7874 139.689 23.9043 139.331 23.9043C138.974 23.9043 138.678 23.7874 138.444 23.5537C138.21 23.3062 138.094 23.0037 138.094 22.6462V14.128C138.094 13.7705 138.21 13.4749 138.444 13.2412C138.678 12.9937 138.974 12.8699 139.331 12.8699C139.689 12.8699 139.984 12.9937 140.218 13.2412C140.452 13.4749 140.569 13.7705 140.569 14.128V22.6462ZM139.31 11.5293C138.843 11.5293 138.513 11.4537 138.32 11.3024C138.128 11.1512 138.032 10.883 138.032 10.498V10.1062C138.032 9.72116 138.135 9.45303 138.341 9.30178C138.547 9.15053 138.877 9.07491 139.331 9.07491C139.812 9.07491 140.149 9.15053 140.342 9.30178C140.534 9.45303 140.63 9.72116 140.63 10.1062V10.498C140.63 10.8968 140.527 11.1718 140.321 11.323C140.129 11.4605 139.792 11.5293 139.31 11.5293Z" fill="white"/>
<path d="M152.909 21.7387C153.17 22.0137 153.301 22.323 153.301 22.6668C153.301 23.0105 153.164 23.2993 152.889 23.533C152.627 23.7668 152.345 23.8837 152.043 23.8837C151.685 23.8837 151.383 23.7462 151.135 23.4712L147.423 19.5524L146.412 20.4805V22.6462C146.412 23.0037 146.295 23.3062 146.062 23.5537C145.828 23.7874 145.532 23.9043 145.175 23.9043C144.817 23.9043 144.522 23.7874 144.288 23.5537C144.054 23.3062 143.937 23.0037 143.937 22.6462V9.89991C143.937 9.54241 144.054 9.24678 144.288 9.01303C144.522 8.76553 144.817 8.64178 145.175 8.64178C145.532 8.64178 145.828 8.76553 146.062 9.01303C146.295 9.24678 146.412 9.54241 146.412 9.89991V17.5312L150.826 13.2618C151.087 13.0005 151.39 12.8699 151.734 12.8699C152.036 12.8699 152.304 13.0005 152.538 13.2618C152.785 13.5093 152.909 13.7637 152.909 14.0249C152.909 14.3549 152.744 14.6643 152.414 14.953L149.3 17.8199L152.909 21.7387Z" fill="white"/>
<path d="M165.17 21.7387C165.431 22.0137 165.562 22.323 165.562 22.6668C165.562 23.0105 165.424 23.2993 165.149 23.533C164.888 23.7668 164.606 23.8837 164.303 23.8837C163.946 23.8837 163.643 23.7462 163.396 23.4712L159.683 19.5524L158.673 20.4805V22.6462C158.673 23.0037 158.556 23.3062 158.322 23.5537C158.088 23.7874 157.793 23.9043 157.435 23.9043C157.078 23.9043 156.782 23.7874 156.548 23.5537C156.315 23.3062 156.198 23.0037 156.198 22.6462V9.89991C156.198 9.54241 156.315 9.24678 156.548 9.01303C156.782 8.76553 157.078 8.64178 157.435 8.64178C157.793 8.64178 158.088 8.76553 158.322 9.01303C158.556 9.24678 158.673 9.54241 158.673 9.89991V17.5312L163.087 13.2618C163.348 13.0005 163.65 12.8699 163.994 12.8699C164.297 12.8699 164.565 13.0005 164.798 13.2618C165.046 13.5093 165.17 13.7637 165.17 14.0249C165.17 14.3549 165.005 14.6643 164.675 14.953L161.56 17.8199L165.17 21.7387Z" fill="white"/>
<path d="M177.203 12.6637C177.56 12.6637 177.856 12.7805 178.09 13.0143C178.324 13.248 178.44 13.5505 178.44 13.9218V22.6462C178.44 23.0037 178.324 23.3062 178.09 23.5537C177.856 23.7874 177.56 23.9043 177.203 23.9043C176.845 23.9043 176.55 23.7874 176.316 23.5537C176.096 23.3199 175.979 23.0243 175.965 22.6668C175.622 23.0655 175.154 23.4093 174.563 23.698C173.985 23.973 173.374 24.1105 172.727 24.1105C171.779 24.1105 170.919 23.8699 170.149 23.3887C169.379 22.8937 168.767 22.213 168.314 21.3468C167.874 20.4805 167.654 19.4974 167.654 18.3974C167.654 17.2974 167.874 16.3143 168.314 15.448C168.754 14.568 169.352 13.8874 170.108 13.4062C170.878 12.9112 171.724 12.6637 172.645 12.6637C173.305 12.6637 173.924 12.7874 174.501 13.0349C175.079 13.2687 175.567 13.5712 175.965 13.9424V13.9218C175.965 13.5643 176.082 13.2687 176.316 13.0349C176.55 12.7874 176.845 12.6637 177.203 12.6637ZM173.037 21.8418C173.93 21.8418 174.659 21.5187 175.223 20.8724C175.787 20.2124 176.069 19.3874 176.069 18.3974C176.069 17.4074 175.787 16.5824 175.223 15.9224C174.659 15.2624 173.93 14.9324 173.037 14.9324C172.157 14.9324 171.435 15.2624 170.871 15.9224C170.307 16.5824 170.025 17.4074 170.025 18.3974C170.025 19.3874 170.3 20.2124 170.85 20.8724C171.414 21.5187 172.143 21.8418 173.037 21.8418Z" fill="white"/>
<g clip-path="url(#clip0_1_8)">
<rect width="33" height="33.2515" fill="url(#paint0_radial_1_8)"/>
<mask id="mask0_1_8" style="mask-type:alpha" maskUnits="userSpaceOnUse" x="0" y="0" width="33" height="34">
<rect width="33" height="33.2515" fill="#C4C4C4"/>
</mask>
<g mask="url(#mask0_1_8)">
<rect width="68.3757" height="28.5985" transform="matrix(0.914908 -0.403661 0.39855 0.917147 -11.4583 -3.34177)" fill="url(#paint1_linear_1_8)" fill-opacity="0.07"/>
<rect width="68.3757" height="28.5985" transform="matrix(0.914908 -0.403661 0.39855 0.917146 5.95831 4.50931)" fill="url(#paint2_linear_1_8)" fill-opacity="0.2"/>
<g filter="url(#filter0_d_1_8)">
<path d="M14.287 8.31287L22.6996 16.6258L14.287 24.9386L11.6996 22.3808L17.5247 16.6258L11.6996 10.8707L14.287 8.31287Z" fill="white"/>
</g>
</g>
</g>
<defs>
<filter id="filter0_d_1_8" x="9.69958" y="6.31287" width="15" height="20.6258" filterUnits="userSpaceOnUse" color-interpolation-filters="sRGB">
<feFlood flood-opacity="0" result="BackgroundImageFix"/>
<feColorMatrix in="SourceAlpha" type="matrix" values="0 0 0 0 0 0 0 0 0 0 0 0 0 0 0 0 0 0 127 0" result="hardAlpha"/>
<feOffset/>
<feGaussianBlur stdDeviation="1"/>
<feColorMatrix type="matrix" values="0 0 0 0 0 0 0 0 0 0 0 0 0 0 0 0 0 0 0.5 0"/>
<feBlend mode="normal" in2="BackgroundImageFix" result="effect1_dropShadow_1_8"/>
<feBlend mode="normal" in="SourceGraphic" in2="effect1_dropShadow_1_8" result="shape"/>
</filter>
<radialGradient id="paint0_radial_1_8" cx="0" cy="0" r="1" gradientUnits="userSpaceOnUse" gradientTransform="translate(16.5) rotate(90) scale(38.0642 37.7763)">
<stop stop-color="#545454"/>
<stop offset="0.9999"/>
<stop offset="1" stop-color="#C4C4C4" stop-opacity="0"/>
</radialGradient>
<linearGradient id="paint1_linear_1_8" x1="17.8868" y1="11.2643" x2="9.52799" y2="21.6658" gradientUnits="userSpaceOnUse">
<stop stop-color="white" stop-opacity="0"/>
<stop offset="1" stop-color="white" stop-opacity="0.63"/>
</linearGradient>
<linearGradient id="paint2_linear_1_8" x1="7.19234" y1="11.0894" x2="25.6513" y2="25.1338" gradientUnits="userSpaceOnUse">
<stop stop-color="white" stop-opacity="0"/>
<stop offset="1" stop-color="white" stop-opacity="0.63"/>
</linearGradient>
<clipPath id="clip0_1_8">
<rect width="33" height="33.2515" rx="6" fill="white"/>
</clipPath>
</defs>
</svg>
