<svg fill="none" height="40" viewBox="0 0 40 40" width="40" xmlns="http://www.w3.org/2000/svg" xmlns:xlink="http://www.w3.org/1999/xlink"><clipPath id="a"><path d="m0 0h40v40h-40z"/></clipPath><g clip-path="url(#a)"><path clip-rule="evenodd" d="m0 20c0 9.9 7.2 18.1 16.7 19.8l.1182-.0967c-.0061-.0011-.0121-.0022-.0182-.0033v-14.1h-5v-5.6h5v-4.4c0-5 3.2-7.80001 7.8-7.80001 1.4 0 3 .2 4.4.4v5.10001h-2.6c-2.4 0-3 1.2-3 2.8v3.9h5.3l-.9 5.6h-4.4v14.1c-.0609.0111-.1218.0218-.1828.0323l.0828.0677c9.5-1.7 16.7-9.9 16.7-19.8 0-11-9-20-20-20s-20 9-20 20z" fill="#fff" fill-rule="evenodd"/></g></svg>