<svg fill="none" height="530" viewBox="0 0 531 530" width="531" xmlns="http://www.w3.org/2000/svg"><path d="m452.082 451.576h-78.471v-122.888c0-29.304-.523-67.027-40.813-67.027-40.87 0-47.123 31.928-47.123 64.894v125.013h-78.471v-252.708h75.332v34.535h1.055c7.538-12.89 18.432-23.494 31.521-30.683 13.089-7.188 27.882-10.692 42.805-10.138 79.534 0 94.198 52.314 94.198 120.371zm-333.419-287.26c-9.007.002-17.811-2.667-25.3008-7.67-7.4895-5.002-13.3275-12.113-16.7756-20.433-3.4481-8.321-4.3516-17.477-2.5961-26.31 1.7555-8.834 6.0911-16.9489 12.4585-23.3186s14.481-10.7082 23.314-12.4668c8.833-1.7587 17.989-.8586 26.311 2.5866 8.321 3.4451 15.434 9.2805 20.439 16.7682 5.005 7.4876 7.678 16.2916 7.679 25.2976.001 5.98-1.175 11.902-3.463 17.427-2.287 5.526-5.641 10.546-9.869 14.776-4.227 4.229-9.247 7.584-14.771 9.874-5.525 2.289-11.446 3.468-17.426 3.469zm39.235 287.26h-78.5523v-252.716h78.5523zm333.305-451.206619h-451.2888c-10.243-.115592-20.1129 3.840119-27.4408 10.997919-7.32789 7.1578-11.514314 16.932-11.639324 27.1749v453.1608c.120731 10.248 4.304474 20.029 11.632124 27.194 7.3277 7.165 17.1999 11.129 27.448 11.02h451.2888c10.268.128 20.168-3.824 27.525-10.989 7.356-7.165 11.568-16.957 11.71-27.225v-453.1935c-.146-10.2632-4.361-20.0486-11.717-27.2062-7.357-7.15756-17.255-11.101974-27.518-10.966615" fill="#fff"/></svg>