<?xml version="1.0" encoding="utf-8"?>
<!-- Generator: Adobe Illustrator 23.0.1, SVG Export Plug-In . SVG Version: 6.00 Build 0)  -->
<svg version="1.1" id="Artwork" xmlns="http://www.w3.org/2000/svg" xmlns:xlink="http://www.w3.org/1999/xlink" x="0px" y="0px"
	 viewBox="0 0 653.9 290.3" style="enable-background:new 0 0 653.9 290.3;" xml:space="preserve">
<title>Idean-Logo-Endorsed-Black-RGB</title>
<path d="M19.6,2.2c10.9-0.1,19.8,8.7,19.9,19.6c0.1,10.9-8.7,19.8-19.6,19.9C9,41.7,0.1,33,0,22.1C0,22,0,22,0,21.9
	C-0.1,11.1,8.5,2.3,19.3,2.2C19.4,2.2,19.5,2.2,19.6,2.2 M4.6,192.5h29.9V57.3H4.6V192.5z M192.4,0l-29.9,3.2v68.1
	c-8.4-9.2-23.1-15.7-39.9-15.7c-40.5,0-67.4,27-67.4,69.2c0,42.2,26.9,69.2,67.4,69.2c17.9,0,31.2-7.3,39.9-15.7l29.9,16.7L192.4,0z
	 M124,84.4c23.6,0,39.1,17.3,39.1,40.6c0,23.3-15.5,40.6-39.1,40.6c-23.6,0-39.4-17.3-39.4-40.6C84.6,101.7,100.3,84.4,124,84.4
	 M348.3,135.2c0.6-3.4,0.8-6.8,0.8-10.3c0.1-38.1-30.6-69.1-68.7-69.3s-69.1,30.6-69.3,68.7c0,0.2,0,0.4,0,0.5
	c0,38.4,30.4,69.2,69.8,69.2c30.7,0,57.1-16.5,66.3-41.1h-35.6c-5.7,8.6-16.8,13-30.7,13c-19.6,0-35-13.8-38.3-30.8L348.3,135.2z
	 M243.9,108.7c4.3-14.1,19-25.4,36.1-25.4s31.8,11.4,36.1,25.4H243.9 M472,57.3v14.1c-5.7-7.3-20.9-15.7-38.9-15.7
	c-38.9,0-68.2,28.7-68.2,69.2s29.3,69.2,68.2,69.2c18.2,0,33.2-8.4,38.9-15.7l30.4,16.7V57.3L472,57.3z M434.2,84.4
	c22,0,38.9,18.4,38.9,40.6c0,22.2-16.8,40.6-38.9,40.6c-22.6,0-39.9-18.4-39.9-40.6C394.3,102.8,411.7,84.4,434.2,84.4 M528.6,192.5
	h29.9v-74.6c0-20,10.3-34.1,29.9-34.1S618,94.1,618,117.9v74.6h29.9v-81.1c0-36-18.5-55.7-52.2-55.7c-18.8,0-33.9,8.9-40.1,17
	l-27-18.1L528.6,192.5z M13.9,243.7c-1.4,0-3,0.1-4.7,0.2c-1.6,0.1-3.1,0.3-4.6,0.7v34.4h4.9V266h3.9c2.2,0,4.4-0.2,6.6-0.6
	c1.8-0.3,3.4-1,5-1.9c1.3-0.9,2.4-2.1,3.1-3.5c0.8-1.6,1.1-3.4,1.1-5.2c0-3.7-1.3-6.5-3.9-8.3C22.5,244.6,18.8,243.7,13.9,243.7
	 M14.3,247.9c1.2,0,2.5,0.1,3.7,0.3c1.1,0.2,2.1,0.5,3.1,1.1c0.9,0.5,1.6,1.2,2.1,2.1c0.6,1,0.8,2.2,0.8,3.3c0,1.2-0.2,2.4-0.8,3.5
	c-0.5,0.9-1.2,1.6-2.1,2.1c-1.1,0.6-2.2,0.9-3.4,1.1c-1.5,0.2-3,0.3-4.5,0.3H9.5v-13.7C10.6,248,12.2,247.9,14.3,247.9 M41.9,252.1
	c-1.5,0-3.1,0.1-4.6,0.4c-1,0.1-2,0.4-3,0.8l0.6,3.9c0.8-0.3,1.7-0.5,2.6-0.7c1.3-0.2,2.7-0.3,4.1-0.3c1,0,2,0.1,2.9,0.5
	c0.7,0.3,1.3,0.8,1.8,1.4c0.4,0.6,0.8,1.3,0.9,2c0.2,0.8,0.3,1.5,0.3,2.3v1.3c-0.1,0-0.4-0.1-0.7-0.2c-0.3-0.1-0.7-0.1-1.2-0.2
	c-0.5-0.1-0.9-0.1-1.4-0.2c-0.5-0.1-1-0.1-1.5-0.1c-1.4,0-2.8,0.1-4.2,0.5c-1.2,0.3-2.4,0.7-3.5,1.4c-1,0.6-1.8,1.5-2.4,2.5
	c-0.6,1.1-0.9,2.4-0.9,3.7c0,1.3,0.2,2.7,0.8,3.9c0.5,1,1.2,1.9,2.1,2.6c1,0.7,2.1,1.2,3.2,1.4c1.3,0.3,2.7,0.5,4.1,0.5
	c1,0,2.1,0,3.1-0.1c1.1-0.1,2-0.2,2.9-0.3c0.9-0.1,1.7-0.2,2.4-0.3c0.7-0.1,1.3-0.2,1.7-0.3v-16.4c0-1.4-0.2-2.7-0.5-4.1
	c-0.3-1.2-0.9-2.3-1.7-3.2c-0.9-0.9-1.9-1.6-3.1-2.1C45.1,252.3,43.5,252,41.9,252.1 M42.3,275.5c-1.5,0.1-3-0.3-4.4-1
	c-1.1-0.8-1.8-2.1-1.6-3.5c0-0.8,0.2-1.6,0.7-2.2c0.4-0.6,1-1,1.6-1.3c0.7-0.3,1.4-0.5,2.2-0.6c0.7-0.1,1.5-0.2,2.2-0.2
	c0.9,0,1.8,0,2.7,0.2c0.6,0.1,1.1,0.2,1.6,0.4v7.8c-0.7,0.2-1.4,0.2-2.1,0.3C44.4,275.5,43.4,275.5,42.3,275.5 M68.9,252.2
	c-1.9,0-3.7,0.2-5.5,0.5c-1.4,0.3-2.8,0.7-4.1,1.1v25.1h4.7v-22c0.3-0.1,0.8-0.2,1.7-0.4c0.9-0.2,1.7-0.3,2.6-0.3
	c1.1,0,2.2,0.1,3.3,0.3c0.6,0.1,1.2,0.3,1.8,0.5l0.8-4.1c-0.3-0.1-0.6-0.2-0.9-0.2c-0.4-0.1-0.9-0.2-1.4-0.3s-1-0.2-1.5-0.2
	C69.8,252.2,69.3,252.2,68.9,252.2 M82.5,244.6l-4.7,0.8v23.4c0,1.5,0.1,3.1,0.4,4.6c0.2,1.2,0.7,2.4,1.5,3.3c0.7,0.9,1.7,1.6,2.8,2
	c1.4,0.5,2.9,0.7,4.4,0.7c1.4,0,2.7-0.2,4-0.5c0.8-0.2,1.7-0.5,2.5-0.9l-0.9-3.9c-0.3,0.1-0.9,0.4-1.8,0.7c-1.1,0.4-2.2,0.5-3.4,0.5
	c-0.7,0-1.4-0.1-2.1-0.3c-0.6-0.2-1.1-0.5-1.5-1c-0.5-0.6-0.8-1.3-0.9-2c-0.2-1.1-0.3-2.2-0.3-3.3v-12.1h9.9v-3.9h-9.9L82.5,244.6z
	 M132.1,265.8c0-1.9-0.3-3.8-0.9-5.6c-0.6-1.6-1.4-3.1-2.5-4.3c-1.1-1.2-2.4-2.2-3.9-2.8c-3.2-1.3-6.7-1.3-9.9,0
	c-1.5,0.6-2.8,1.6-3.9,2.8c-1.1,1.3-2,2.7-2.5,4.4c-1.2,3.7-1.2,7.6,0,11.3c0.6,1.6,1.4,3.1,2.5,4.3c1.1,1.2,2.4,2.2,3.9,2.8
	c3.2,1.3,6.7,1.3,9.9,0c1.5-0.6,2.8-1.6,3.9-2.8c1.1-1.3,2-2.7,2.5-4.3C131.8,269.6,132.1,267.7,132.1,265.8 M127.2,265.8
	c0.1,2.5-0.6,5-2,7c-2.4,3-6.8,3.5-9.8,1.1c-0.4-0.3-0.8-0.7-1.1-1.1c-2.6-4.3-2.6-9.7,0-14c2.4-3,6.8-3.5,9.8-1.1
	c0.4,0.3,0.7,0.7,1.1,1.1C126.6,260.8,127.3,263.3,127.2,265.8 M148.4,239.8c-3.5,0-6.1,0.9-7.7,2.7c-1.6,1.8-2.5,4.4-2.5,7.8v28.5
	h4.7v-22.2h10.1v-3.9h-10.1v-2.3c-0.1-1.7,0.4-3.4,1.3-4.8c0.9-1.2,2.4-1.8,4.6-1.8c0.9,0,1.8,0.1,2.7,0.3c0.6,0.1,1.2,0.3,1.7,0.6
	l0.9-4c-0.7-0.2-1.4-0.4-2.1-0.5C150.8,239.9,149.6,239.8,148.4,239.8 M189.5,279.8c1.5,0,3.1-0.1,4.6-0.3c1.3-0.2,2.6-0.4,3.9-0.7
	c1-0.3,2-0.6,3-1c0.7-0.3,1.4-0.6,2-1l-2.1-6.3c-1.3,0.6-2.6,1.2-4,1.6c-2.2,0.6-4.4,0.9-6.7,0.8c-2,0.1-4-0.3-5.9-1.1
	c-1.6-0.7-3-1.8-4.1-3.2c-1.1-1.5-1.9-3.1-2.4-4.9c-0.5-2-0.8-4.1-0.8-6.2c0-2.3,0.3-4.5,1-6.7c0.6-1.8,1.5-3.4,2.7-4.8
	c1.1-1.3,2.6-2.2,4.1-2.9c1.6-0.6,3.4-1,5.2-1c2,0,4,0.3,5.9,0.8c1.5,0.4,2.9,1,4.2,1.8l2.3-6.3c-0.3-0.2-0.8-0.4-1.5-0.8
	c-0.8-0.4-1.7-0.8-2.6-1c-1.2-0.4-2.5-0.7-3.8-0.9c-1.6-0.3-3.2-0.4-4.8-0.4c-2.8,0-5.6,0.5-8.2,1.5c-2.5,1-4.8,2.4-6.6,4.3
	c-1.9,2-3.5,4.4-4.5,7c-1.1,3-1.7,6.2-1.6,9.5c-0.1,3.2,0.4,6.4,1.4,9.5c0.8,2.6,2.2,5,4.1,7c1.8,1.9,4,3.4,6.5,4.3
	C183.6,279.4,186.5,279.9,189.5,279.8 M219.5,245.9c-1.9,0-3.9,0.2-5.8,0.5c-1.4,0.2-2.8,0.6-4.1,1l0.9,6c1.1-0.4,2.3-0.7,3.5-0.9
	c1.6-0.3,3.1-0.4,4.7-0.4c1.1,0,2.2,0.1,3.2,0.5c0.8,0.3,1.5,0.8,2,1.4c0.5,0.6,0.9,1.3,1.1,2.1c0.2,0.8,0.3,1.6,0.3,2.5v1.2
	c-1-0.2-1.9-0.4-2.9-0.5c-2.6-0.3-5.1-0.2-7.7,0.4c-1.5,0.3-3,0.9-4.3,1.7c-1.2,0.8-2.2,1.8-2.9,3.1c-0.8,1.4-1.1,3-1.1,4.7
	c-0.1,1.7,0.3,3.3,1,4.9c0.6,1.3,1.5,2.4,2.6,3.2c1.2,0.9,2.6,1.5,4.1,1.8c1.7,0.4,3.5,0.6,5.3,0.6c2.6,0,5.2-0.2,7.8-0.5
	c2.3-0.4,4-0.6,5.2-0.9v-19.5c0-1.8-0.2-3.5-0.6-5.2c-0.4-1.5-1.1-2.9-2.2-4c-1.1-1.2-2.5-2.1-4-2.6
	C223.7,246.2,221.6,245.9,219.5,245.9 M220.1,273.7c-1.6,0.1-3.1-0.3-4.5-1c-1.2-0.8-1.8-2.2-1.7-3.7c0-0.8,0.2-1.6,0.6-2.2
	c0.4-0.6,1-1.1,1.6-1.4c0.7-0.3,1.5-0.6,2.3-0.7c0.8-0.1,1.7-0.2,2.5-0.2c0.9,0,1.7,0.1,2.6,0.2c0.6,0.1,1.2,0.2,1.8,0.4v8.2
	C223.6,273.6,221.9,273.7,220.1,273.7 M270,262.8c0-2.4-0.4-4.7-1.1-7c-0.7-2-1.8-3.8-3.3-5.3c-1.4-1.5-3.2-2.6-5.1-3.4
	c-2.2-0.8-4.5-1.2-6.8-1.2c-2.3,0-4.7,0.2-7,0.6c-2.2,0.4-4.1,0.8-5.6,1.2v42.5h7.4v-12.5c1,0.5,2,0.9,3.1,1.2
	c1.4,0.4,2.8,0.6,4.2,0.5c2.1,0,4.2-0.4,6.1-1.2c1.7-0.8,3.3-2,4.5-3.4c1.2-1.6,2.2-3.4,2.7-5.3C269.7,267.4,270,265.1,270,262.8
	 M262.4,263c0.1,2.6-0.5,5.2-1.9,7.4c-1.3,1.8-3.2,2.8-5.9,2.8c-1.2,0-2.4-0.2-3.5-0.6c-0.9-0.3-1.8-0.7-2.6-1.3v-18.4
	c0.7-0.2,1.5-0.3,2.2-0.4c0.8-0.1,1.5-0.1,2.2-0.1c3.3,0,5.7,0.9,7.2,2.8C261.6,257.1,262.4,259.6,262.4,263 M303.6,247.8
	c-1.5-0.4-3.4-0.8-5.5-1.2c-2.3-0.4-4.6-0.6-6.9-0.5c-2.3,0-4.6,0.4-6.7,1.2c-1.9,0.7-3.6,1.8-5,3.3c-1.4,1.4-2.5,3.2-3.1,5
	c-0.7,2.1-1.1,4.3-1.1,6.5c0,2.2,0.3,4.5,1,6.6c0.6,1.8,1.6,3.4,2.8,4.8c1.2,1.3,2.7,2.3,4.4,2.9c1.8,0.7,3.7,1,5.6,1
	c1.4,0,2.8-0.2,4.2-0.6c1-0.3,2-0.7,2.9-1.1v1.2c0.1,2-0.5,4-1.9,5.5c-1.3,1.2-3.4,1.8-6.4,1.8c-1.8,0-3.5-0.2-5.3-0.5
	c-1.5-0.3-2.9-0.7-4.3-1.3l-1.4,6.3c3.5,1.2,7.1,1.8,10.8,1.8c5.4,0,9.4-1.2,12-3.6c2.6-2.4,3.9-6.1,3.9-11.3V247.8z M282.9,262
	c-0.1-2.5,0.6-5,2.1-7c1.5-1.8,3.8-2.8,6.2-2.7c1,0,2,0,3,0.2c0.8,0.1,1.4,0.2,2,0.3v16.7c-0.8,0.5-1.6,0.9-2.6,1.2
	c-1.1,0.3-2.2,0.5-3.4,0.5c-2,0.1-3.9-0.7-5.3-2.2C283.6,267.4,282.9,265.1,282.9,262 M310.7,263c0,2.3,0.3,4.5,1,6.7
	c0.6,2,1.6,3.8,3,5.3c1.4,1.6,3.2,2.8,5.2,3.5c2.4,0.9,4.9,1.3,7.4,1.3c1.1,0,2.2-0.1,3.3-0.2c1.1-0.1,2.1-0.3,3-0.5
	c0.8-0.2,1.7-0.4,2.5-0.6c0.6-0.2,1.1-0.4,1.7-0.6l-1-6.1c-1.1,0.5-2.3,0.8-3.5,1c-1.6,0.3-3.3,0.5-5,0.5c-3.1,0-5.4-0.7-7-2.1
	c-1.7-1.5-2.7-3.7-2.7-6h21.2c0-0.4,0.1-0.9,0.1-1.4c0-0.5,0-1,0-1.4c0-5.5-1.2-9.6-3.7-12.3c-2.5-2.7-5.9-4.1-10.4-4.1
	c-1.9,0-3.8,0.4-5.5,1.1c-1.8,0.7-3.4,1.8-4.8,3.2c-1.5,1.5-2.6,3.3-3.4,5.3C311.1,257.9,310.7,260.4,310.7,263 M318.5,259.6
	c0.1-0.9,0.4-1.9,0.7-2.8c0.3-0.9,0.8-1.7,1.4-2.4c0.6-0.7,1.3-1.3,2.2-1.7c0.9-0.4,2-0.7,3-0.6c1,0,2,0.2,2.9,0.6
	c0.8,0.4,1.5,0.9,2,1.6c0.6,0.7,1,1.5,1.3,2.4c0.3,0.9,0.4,1.9,0.4,2.9L318.5,259.6z M365.3,278.9h7.4v-17.8c0-1.2-0.1-2.5-0.2-3.7
	c-0.1-1.1-0.3-2.2-0.7-3.3c0.8-0.5,1.6-0.9,2.4-1.1c1.1-0.4,2.2-0.6,3.4-0.6c2.3,0,3.9,0.7,4.7,2.2c0.8,1.5,1.2,3.9,1.2,7.3v16.9
	h7.4v-18.1c0-2-0.2-4-0.5-6c-0.3-1.7-0.9-3.3-1.9-4.7c-1-1.3-2.3-2.4-3.8-3c-2-0.8-4.1-1.1-6.2-1.1c-1,0-2,0.1-2.9,0.3
	c-0.9,0.2-1.8,0.5-2.7,0.8c-0.8,0.3-1.6,0.6-2.3,1c-0.6,0.3-1.2,0.7-1.7,1c-1-1-2.2-1.8-3.5-2.3c-1.7-0.6-3.6-0.9-5.4-0.9
	c-2.5,0-4.9,0.2-7.3,0.5c-1.9,0.3-3.8,0.7-5.6,1.2v31.1h7.4v-26c0.5-0.1,1.2-0.2,2.2-0.3c0.9-0.1,1.8-0.2,2.7-0.2
	c2.3,0,3.9,0.7,4.7,2.2c0.8,1.5,1.3,3.9,1.3,7.3L365.3,278.9z M407.9,237.3c0.1-1.3-0.4-2.5-1.4-3.4c-0.9-0.8-2-1.2-3.2-1.2
	c-1.2,0-2.4,0.4-3.3,1.2c-0.9,0.9-1.4,2.1-1.4,3.4c-0.1,1.3,0.4,2.5,1.4,3.3c0.9,0.8,2.1,1.3,3.3,1.2c1.2,0,2.3-0.4,3.2-1.2
	C407.4,239.8,407.9,238.6,407.9,237.3 M407.1,246.7h-7.4v32.2h7.4L407.1,246.7z M415.9,278.9h7.4v-26c0.5-0.1,1.2-0.2,2.3-0.3
	c1-0.1,2-0.2,3-0.2c1.1,0,2.2,0.2,3.2,0.5c0.9,0.3,1.6,0.9,2.1,1.7c0.6,0.9,0.9,1.9,1.1,3c0.2,1.5,0.4,2.9,0.3,4.4v16.9h7.4v-18.1
	c0-2-0.2-4-0.6-6c-0.4-1.7-1.1-3.3-2.2-4.7c-1.1-1.3-2.6-2.4-4.2-3c-2.1-0.8-4.3-1.1-6.6-1.1c-2.6,0-5.1,0.2-7.6,0.5
	c-1.9,0.3-3.8,0.7-5.6,1.2L415.9,278.9z M459.6,237.3c0.1-1.3-0.4-2.5-1.4-3.4c-0.9-0.8-2-1.2-3.2-1.2c-1.2,0-2.4,0.4-3.3,1.2
	c-0.9,0.9-1.4,2.1-1.4,3.4c-0.1,1.3,0.4,2.5,1.4,3.3c0.9,0.8,2.1,1.3,3.3,1.2c1.2,0,2.3-0.4,3.2-1.2
	C459.2,239.8,459.7,238.6,459.6,237.3 M458.8,246.7h-7.4v32.2h7.4V246.7z M481.7,278.9h7.7v-42.6h-7.7L481.7,278.9z M498.7,278.9
	h7.4v-26c0.5-0.1,1.2-0.2,2.3-0.3c1-0.1,2-0.2,3-0.2c1.1,0,2.2,0.2,3.2,0.5c0.9,0.3,1.6,0.9,2.1,1.7c0.6,0.9,0.9,1.9,1.1,3
	c0.2,1.5,0.4,2.9,0.3,4.4v16.9h7.4v-18.1c0-2-0.2-4-0.6-6c-0.4-1.7-1.1-3.3-2.2-4.7c-1.1-1.3-2.6-2.4-4.2-3
	c-2.1-0.8-4.3-1.1-6.6-1.1c-2.6,0-5.1,0.2-7.6,0.5c-1.9,0.3-3.8,0.7-5.6,1.2V278.9z M547.9,278.9c2.1-4.2,4.2-9.1,6.3-14.5
	c2.3-5.8,4.2-11.6,5.9-17.6h-7.7c-0.5,1.8-1,3.7-1.6,5.8c-0.6,2.1-1.3,4.1-1.9,6.2c-0.7,2.1-1.4,4.1-2.1,6c-0.7,1.9-1.4,3.7-2,5.3
	c-0.6-1.6-1.3-3.3-2-5.3c-0.7-1.9-1.4-4-2.1-6c-0.7-2.1-1.3-4.1-1.9-6.2c-0.6-2.1-1.1-4-1.6-5.8h-7.9c1.7,6,3.6,11.8,5.9,17.6
	c2.2,5.5,4.3,10.3,6.3,14.5H547.9z M562.4,263c0,2.3,0.3,4.5,1,6.7c0.6,2,1.6,3.8,3,5.3c1.4,1.6,3.2,2.8,5.2,3.5
	c2.4,0.9,4.9,1.3,7.4,1.3c1.1,0,2.2-0.1,3.3-0.2c1.1-0.1,2.1-0.3,3-0.5c0.8-0.2,1.7-0.4,2.5-0.6c0.6-0.2,1.1-0.4,1.7-0.6l-1-6.1
	c-1.1,0.5-2.3,0.8-3.5,1c-1.6,0.3-3.3,0.5-5,0.5c-3.1,0-5.4-0.7-7-2.1c-1.7-1.5-2.7-3.7-2.7-6h21.2c0-0.4,0.1-0.9,0.1-1.4
	c0-0.5,0-1,0-1.4c0-5.5-1.2-9.6-3.7-12.3c-2.5-2.7-5.9-4.1-10.4-4.1c-1.9,0-3.8,0.4-5.5,1.1c-1.8,0.7-3.4,1.8-4.8,3.2
	c-1.5,1.5-2.6,3.3-3.4,5.3C562.8,257.9,562.4,260.4,562.4,263 M570.2,259.6c0.1-0.9,0.3-1.9,0.7-2.8c0.3-0.9,0.8-1.7,1.4-2.4
	c0.6-0.7,1.3-1.3,2.2-1.7c0.9-0.4,2-0.7,3-0.6c1,0,2,0.2,2.9,0.6c0.8,0.4,1.5,0.9,2,1.6c0.6,0.7,1,1.5,1.3,2.4
	c0.3,0.9,0.4,1.9,0.4,2.9L570.2,259.6z M598.7,278.9h7.4v-26c0.5-0.1,1.2-0.2,2.3-0.3c1-0.1,2-0.2,3-0.2c1.1,0,2.2,0.2,3.2,0.5
	c0.9,0.3,1.6,0.9,2.1,1.7c0.6,0.9,0.9,1.9,1.1,3c0.2,1.5,0.4,2.9,0.3,4.4v16.9h7.4v-18.1c0-2-0.2-4-0.6-6c-0.4-1.7-1.1-3.3-2.2-4.7
	c-1.1-1.3-2.6-2.4-4.2-3c-2.1-0.8-4.3-1.1-6.6-1.1c-2.6,0-5.1,0.2-7.6,0.5c-1.9,0.3-3.8,0.7-5.6,1.2V278.9z M633.7,266.1
	c0,1.9,0.2,3.8,0.6,5.7c0.3,1.5,1,3,1.9,4.2c1,1.2,2.2,2.1,3.7,2.7c1.8,0.7,3.8,1,5.7,0.9c1.7,0,3.3-0.2,4.9-0.6
	c1.1-0.3,2.3-0.7,3.4-1.1l-1.2-5.9c-0.8,0.3-1.6,0.6-2.5,0.8c-1.2,0.3-2.4,0.4-3.6,0.4c-2,0-3.4-0.6-4.2-1.7c-0.8-1.1-1.2-3-1.2-5.5
	v-13.1h11.4v-6.2h-11.4V237l-7.4,1.2L633.7,266.1z"/>
</svg>
